<svg width="118" height="17" viewBox="0 0 118 17" fill="none" xmlns="http://www.w3.org/2000/svg">
<path d="M52.5272 15.9571V15.762L52.634 15.7612H52.6694L52.7408 15.7598L52.8123 15.7583L52.8815 15.7561L52.95 15.7539C53.9686 15.7141 54.8244 15.5027 53.9472 14.7559L53.9178 14.7309L49.1356 10.6241L44.2527 14.7309C43.3269 15.4976 44.1643 15.7134 45.188 15.7546L45.2558 15.7561L45.325 15.7583L45.3957 15.7598L45.4671 15.7605L45.5378 15.7612H45.6093V15.9571H13.7335V15.762C14.7374 15.762 16.1367 15.5543 16.1743 14.5585L16.175 14.5173V6.60874C16.0174 6.01807 15.4665 5.31103 13.8705 5.29114H4.44257V9.66375H11.6654C13.6091 9.66375 14.0296 9.10842 14.0384 8.71808V8.70409H14.4118V11.2465H14.0392C14.0392 10.8598 13.6415 10.2993 11.7332 10.2868H4.44257V14.5173C4.44257 15.5344 5.79553 15.7561 6.80821 15.762H6.85019V15.9571H0V15.762C1.00385 15.762 2.4032 15.5543 2.44076 14.5585L2.4415 14.5173V6.0733C2.4415 5.05546 1.05541 4.83451 0.041244 4.82862H0V4.63345H20.5837V4.82862C19.5799 4.82862 18.2137 5.03631 18.1768 6.03206L18.1761 6.0733V15.2995H25.0256C26.4323 15.2995 27.266 14.8546 27.7388 14.3796V6.0733C27.7388 5.0562 26.3527 4.83451 25.3378 4.82862H25.2973V4.63345H44.3543L49.7801 9.2734L53.8161 5.85972C54.7198 5.1107 53.9185 4.88754 52.9213 4.83967L52.8513 4.83672C52.7342 4.83156 52.6156 4.82935 52.4963 4.82935L52.4256 4.82862V4.63345H59.4481C59.4365 4.58769 59.4254 4.54178 59.415 4.49572C59.3302 4.1277 59.3272 3.74555 59.4062 3.37624C59.5203 2.8489 59.4754 2.31199 59.4739 1.77877C59.4739 1.52173 59.5233 1.28237 59.6197 1.04669C59.809 0.581218 60.181 0.435391 60.6339 0.662233C61.1134 0.903069 61.4713 1.289 61.8071 1.69186C62.3094 2.29285 62.8456 2.86953 63.2175 3.56847C63.2566 3.64212 63.2897 3.71871 63.3251 3.79457C63.3604 3.87117 63.4083 3.95292 63.3052 4.01258C63.2161 4.06413 63.1284 4.12305 63.0165 4.04498C62.8986 3.96397 62.8309 3.8476 62.7587 3.7327C62.245 2.91784 61.6342 2.16847 60.9395 1.50111C60.7458 1.31551 60.519 1.0489 60.2458 1.17705C60.0543 1.2669 60.0116 1.48122 59.9946 1.69702L59.9902 1.75888C59.9873 1.81044 59.985 1.86052 59.9814 1.90913C59.9696 2.08589 59.9792 2.26486 59.9792 2.44309C60.0013 2.8629 59.974 3.27976 59.9246 3.69662C59.8547 4.28508 59.9902 4.83156 60.2782 5.34785C60.3076 5.40235 60.3393 5.45685 60.3702 5.51135L60.4638 5.67486C60.6184 5.94736 60.7665 6.22355 60.8615 6.52625C60.916 6.69565 61.0051 6.89745 60.8136 7.00277C60.6 7.12061 60.4454 6.93059 60.3599 6.77151C60.0263 6.14475 59.7008 5.51209 59.5012 4.82862H59.3097C58.3102 4.82862 56.5611 4.98328 55.502 5.81185L55.443 5.85972L50.5939 9.96645L56.1552 14.7309C56.9647 15.4011 58.216 15.65 59.2132 15.7296C59.6183 15.7458 59.8812 15.6552 60.1095 15.5351L60.1692 15.5027L60.2281 15.4696C61.5199 14.7184 62.7734 14.1056 64.2354 13.8036C65.3541 13.5731 66.4596 13.2697 67.4863 12.7836C68.7067 12.2054 69.6074 11.312 69.8188 9.86702C69.9241 9.1482 69.9204 8.46472 69.659 7.7842C69.6542 7.77186 69.6493 7.75958 69.6442 7.74737C69.5559 7.6914 69.4881 7.6914 69.4498 7.64352C69.4049 7.58681 69.2289 7.6067 69.0433 7.62585L68.9785 7.63248C68.9158 7.63903 68.8529 7.64271 68.7899 7.64352C68.5454 7.64352 68.4902 7.39164 68.5491 7.24802C68.5695 7.1983 68.5967 7.15169 68.6301 7.10956C68.616 7.07766 68.6106 7.04258 68.6146 7.00792C68.6279 6.84148 68.8032 6.79287 68.9637 6.80023C69.3187 6.8157 69.6001 6.93869 69.793 7.27159C70.3123 8.16644 70.3454 9.11063 70.2033 10.1101C70.0537 11.1706 69.4594 11.916 68.6934 12.5685L68.5712 12.6709L68.4931 12.735V14.465H72.0467C76.971 14.465 79.4066 12.9611 79.4066 10.2802C79.4066 7.63616 77.0196 6.158 72.3877 6.12928L72.247 6.12854H68.8091L68.8164 6.1801C68.8341 6.33034 68.7811 6.44966 68.647 6.49679C68.5388 6.53509 68.4754 6.47028 68.4239 6.39442L68.3723 6.3134C68.3357 6.25151 68.3094 6.18411 68.2942 6.11381L68.2861 6.0792C68.1226 5.34122 67.5106 4.72403 66.766 4.57232C66.6379 4.54654 66.5841 4.5296 66.4582 4.49572L65.1391 4.28213C65.0212 4.24457 64.9056 4.18197 64.9181 4.05014C64.9299 3.92272 65.0706 3.8859 65.2002 3.86969C65.9441 3.77248 67.0562 4.10758 67.8251 4.63565H72.4474C77.3252 4.63565 80.7013 5.8855 82.0086 8.0567C82.1633 7.76578 82.3533 7.48665 82.5779 7.22004C83.3012 6.36054 84.3861 5.68517 85.8333 5.19319C87.2798 4.7012 89.0429 4.45521 91.1228 4.45521C93.2027 4.45521 94.9666 4.7012 96.4131 5.19319C97.8596 5.68517 98.9393 6.36054 99.6515 7.22004C99.7576 7.34745 99.8548 7.47781 99.9454 7.61038C101.446 5.62404 104.686 4.48099 108.708 4.48099C113.322 4.48099 116.892 5.97609 117.669 8.14655L117.691 8.21284H114.349C113.537 6.86946 111.597 6.04016 108.729 6.04016C105.07 6.04016 102.276 7.54925 102.276 10.2912C102.276 13.0443 105.049 14.5534 108.856 14.5534C112.28 14.5534 114.566 13.4206 114.683 11.628L114.686 11.5735H109.351V10.1638H117.84V11.452C117.84 14.3096 114.096 16.1118 108.856 16.1118C104.582 16.1118 101.315 14.9238 99.8636 12.8881C99.791 12.9925 99.7146 13.0942 99.6346 13.1931C98.9113 14.0879 97.8316 14.7927 96.3962 15.3083C94.96 15.8238 93.2027 16.0816 91.1228 16.0816C89.0429 16.0816 87.2798 15.8238 85.8333 15.3083C84.3861 14.7927 83.3012 14.0879 82.5779 13.1931C82.3824 12.9526 82.2089 12.695 82.0594 12.4234C80.7963 14.6403 77.4121 15.9314 72.3789 15.9571H65.2348V14.054C64.7767 14.1866 64.3127 14.2993 63.8458 14.4046C62.8279 14.6351 61.9147 15.0778 61.0088 15.5756L60.7819 15.7008L60.5558 15.829L60.329 15.9571H52.5272ZM91.1228 5.18435C89.6992 5.18435 88.4788 5.38836 87.4609 5.79785C86.4438 6.20661 85.669 6.78476 85.138 7.53084C84.607 8.27765 84.3411 9.16072 84.3411 10.1793C84.3411 11.1986 84.6063 12.0994 85.138 12.8823C85.669 13.6637 86.4438 14.2683 87.4609 14.6948C88.4781 15.122 89.6992 15.3355 91.1228 15.3355C92.5472 15.3355 93.7683 15.122 94.7854 14.6948C95.8026 14.2683 96.5773 13.6637 97.1084 12.8815C97.6394 12.0994 97.9053 11.1986 97.9053 10.1793C97.9053 9.16072 97.6401 8.27765 97.1084 7.53084C96.5773 6.78403 95.8026 6.20661 94.7854 5.79785C93.7683 5.38836 92.5472 5.18435 91.1228 5.18435ZM42.597 5.29114H29.7399V9.53928H37.0644C39.0088 9.53928 39.4286 8.98396 39.4381 8.59361V8.57962H39.8116V11.122H39.4381C39.4381 10.7354 39.0404 10.1749 37.1329 10.1624H29.7392V15.2995H41.6484C41.9945 15.1669 42.3201 14.9967 42.5963 14.781L42.6589 14.7309L48.3226 9.93036L43.6089 5.85972C43.3046 5.61667 42.9629 5.42465 42.597 5.29114ZM66.6813 6.38632L66.727 6.40694C66.7896 6.4364 66.8411 6.46144 66.9126 6.4526C67.1851 6.42093 67.3118 6.5999 67.3832 6.81717C67.4568 7.04033 67.3501 7.22151 67.1659 7.33567C66.682 7.63763 66.1554 7.72601 65.5832 7.61038L65.5169 7.58387L65.3807 7.52937C65.311 7.50194 65.2429 7.47072 65.1766 7.43583C64.7804 7.22225 64.7532 6.73616 65.1523 6.53288C65.6355 6.28689 66.151 6.15506 66.6813 6.38558V6.38632ZM66.3617 6.76709C66.3617 6.68313 66.3396 6.61537 66.1923 6.63304C65.8222 6.67196 65.4649 6.79056 65.145 6.98067L65.2901 7.02486L65.3519 7.04254C65.637 7.12355 65.8947 7.17511 66.165 7.14565L66.2482 7.1346L66.2807 7.12945L66.3123 7.12355L66.3256 7.12061C66.3933 7.10293 66.4361 7.06832 66.3771 6.97184C66.3631 6.94456 66.3565 6.91408 66.358 6.88346V6.84958L66.3609 6.78108V6.76635L66.3617 6.76709ZM63.5585 0.879501C63.9135 1.31625 64.0365 1.84211 64.1308 2.37828C64.1581 2.53221 64.1765 2.68761 64.1905 2.78556V2.90709C64.1875 3.02198 64.1809 3.18475 64.0844 3.20832C63.9474 3.24146 63.9187 3.06544 63.8907 2.96895C63.7707 2.56093 63.6801 2.14407 63.56 1.73605C63.5121 1.57328 63.4893 1.31698 63.3207 1.30078C63.166 1.28605 63.124 1.53941 63.054 1.68376C63.0135 1.76846 62.9804 1.8561 62.9487 1.94522L62.8876 2.12271L62.8559 2.21109C62.8176 2.31568 62.7602 2.41216 62.635 2.39522C62.6057 2.39181 62.5775 2.38239 62.552 2.36755C62.5266 2.3527 62.5045 2.33276 62.4871 2.30896C62.4698 2.28517 62.4575 2.25804 62.4512 2.22928C62.4448 2.20053 62.4444 2.17076 62.4501 2.14186C62.537 1.64031 62.7153 1.17263 63.0784 0.801432C63.2536 0.623198 63.4216 0.710842 63.5585 0.879501Z" fill="white"/>
</svg>
