<svg width="40" height="42" viewBox="0 0 40 42" fill="none" xmlns="http://www.w3.org/2000/svg">
<path d="M22.244 33.7349C22.9292 34.4347 22.9292 35.5815 22.244 36.2808L18.9206 39.6754C18.2353 40.3747 17.1134 40.3747 16.4282 39.6754C15.7429 38.9751 15.7425 37.8303 16.4282 37.1299L19.7516 33.7349C20.4373 33.0346 21.5582 33.0346 22.244 33.7349Z" stroke="#89645F" stroke-width="2" stroke-miterlimit="10" stroke-linecap="round" stroke-linejoin="round"/>
<path d="M19.7521 31.1899C20.4373 31.8893 20.4378 33.035 19.7521 33.7354L16.4287 37.1304C15.743 37.8307 14.6211 37.8298 13.9358 37.1304C13.2506 36.4301 13.2506 35.2843 13.9358 34.584L17.2597 31.1899C17.9449 30.4896 19.0668 30.4901 19.7521 31.1899Z" stroke="#89645F" stroke-width="2" stroke-miterlimit="10" stroke-linecap="round" stroke-linejoin="round"/>
<path d="M17.2601 28.6435C17.9453 29.3439 17.9453 30.4896 17.2601 31.1899L13.9362 34.584C13.251 35.2843 12.1291 35.2843 11.4438 34.584C10.7585 33.8842 10.7581 32.7384 11.4438 32.0381L14.7672 28.6435C15.4529 27.9432 16.5748 27.9442 17.2601 28.6435Z" stroke="#89645F" stroke-width="2" stroke-miterlimit="10" stroke-linecap="round" stroke-linejoin="round"/>
<path d="M13.1055 27.7949C13.7907 28.4952 13.7907 29.641 13.1055 30.3413L11.444 32.0381C10.7583 32.7384 9.63641 32.7384 8.95162 32.0381C8.26636 31.3378 8.26589 30.192 8.95162 29.4927L10.6126 27.7949C11.2983 27.0946 12.4202 27.0955 13.1055 27.7949Z" stroke="#89645F" stroke-width="2" stroke-miterlimit="10" stroke-linecap="round" stroke-linejoin="round"/>
<path d="M20.167 38.4024L21.413 39.6754C22.0987 40.3747 23.2211 40.3747 23.9058 39.6754C24.5906 38.9751 24.5906 37.8293 23.9058 37.1299L22.6603 35.856L20.167 38.4024Z" stroke="#89645F" stroke-width="2" stroke-miterlimit="10" stroke-linecap="round" stroke-linejoin="round"/>
<path d="M20.1666 12.9466L14.7663 18.4623C14.0805 19.1626 14.0805 20.3079 14.7663 21.0072C15.4515 21.7075 16.5729 21.7075 17.2587 21.0072L20.1666 18.0384L30.1362 28.2197L30.2791 28.0743C31.8456 26.4739 32.6286 24.3768 32.6286 22.2797L35.9515 18.8866L29.7207 12.5223C28.8028 13.4597 27.6001 13.9282 26.3983 13.9282C25.1951 13.9282 23.9924 13.4587 23.0749 12.5223C22.3892 11.8219 21.2673 11.8229 20.5825 12.5223L20.1666 12.9466Z" stroke="#89645F" stroke-width="2" stroke-miterlimit="10" stroke-linecap="round" stroke-linejoin="round"/>
<path d="M17.2588 12.5222C17.9446 11.8219 19.0655 11.8219 19.7512 12.5222L20.1667 12.9466L14.7664 18.4622C14.0807 19.1626 14.0807 20.3078 14.7664 21.0072C15.4517 21.7075 16.5731 21.7075 17.2588 21.0072L20.1667 18.0384L30.1364 28.2197L31.3823 29.4926C32.0676 30.192 32.0676 31.3378 31.3823 32.0381C30.6975 32.7384 29.5752 32.7384 28.8894 32.0381L25.5665 28.6435L28.8894 32.0381C29.5752 32.7384 29.5752 33.8842 28.8894 34.584C28.2047 35.2843 27.0828 35.2843 26.397 34.584L23.0732 31.1899L26.397 34.584C27.0828 35.2843 27.0828 36.4301 26.397 37.1304C25.7118 37.8298 24.5894 37.8298 23.9046 37.1304L22.582 35.7787C22.8904 35.1101 22.7832 34.2874 22.2432 33.7354C21.5574 33.035 20.4365 33.035 19.7508 33.7354C20.4365 33.035 20.436 31.8893 19.7508 31.1899C19.0655 30.4906 17.9436 30.4896 17.2584 31.1899C17.9436 30.4896 17.9436 29.3438 17.2584 28.6435C16.5731 27.9442 15.4512 27.9432 14.7655 28.6435L13.1036 30.3413C13.7888 29.641 13.7888 28.4952 13.1036 27.7949C12.4183 27.0955 11.2964 27.0946 10.6107 27.7949L10.1957 28.2197L10.0523 28.0733C8.48627 26.473 7.70278 24.3758 7.70278 22.2797L4.37988 18.8856L10.6107 12.5213C11.5286 13.4587 12.7313 13.9272 13.9331 13.9272C15.1382 13.9272 16.3414 13.4582 17.2588 12.5222Z" stroke="#89645F" stroke-width="2" stroke-miterlimit="10" stroke-linecap="round" stroke-linejoin="round"/>
<path d="M1.36719 19.0435L2.79693 20.5037L12.1969 10.9032L3.28291 1.79999H1.36719V19.0435Z" stroke="#89645F" stroke-width="2" stroke-miterlimit="10" stroke-linecap="round" stroke-linejoin="round"/>
<path d="M38.967 19.0435L37.5368 20.5037L28.1377 10.9032L37.0512 1.79999H38.967V19.0435Z" stroke="#89645F" stroke-width="2" stroke-miterlimit="10" stroke-linecap="round" stroke-linejoin="round"/>
</svg>
