<svg width="42" height="42" viewBox="0 0 42 42" fill="none" xmlns="http://www.w3.org/2000/svg">
<path d="M18 8.4005C18 11.0045 19.343 13.1146 21 13.1146C22.6565 13.1146 24.0005 11.0045 24.0005 8.4005C24.0005 6.74258 22.6565 5.40002 21 5.40002C19.343 5.40002 18 6.74306 18 8.4005Z" stroke="#89645F" stroke-width="2" stroke-miterlimit="10" stroke-linecap="round" stroke-linejoin="round"/>
<path d="M21.0006 18.5996C25.6398 18.5996 29.4006 14.8388 29.4006 10.1996C29.4006 5.56037 25.6398 1.79956 21.0006 1.79956C16.3614 1.79956 12.6006 5.56037 12.6006 10.1996C12.6006 14.8388 16.3614 18.5996 21.0006 18.5996Z" stroke="#89645F" stroke-width="2" stroke-miterlimit="10" stroke-linecap="round" stroke-linejoin="round"/>
<path d="M27 16.0018L23.6578 14.6179C22.8768 15.1882 21.973 15.5141 21.0005 15.5141C20.0275 15.5141 19.1242 15.1882 18.3432 14.6179L15 16.0018V16.0728C16.525 17.6304 18.6485 18.6 21 18.6C23.3515 18.6 25.4746 17.6309 27 16.0752V16.0018Z" stroke="#89645F" stroke-width="2" stroke-miterlimit="10" stroke-linecap="round" stroke-linejoin="round"/>
<path d="M7.2002 30.0024C7.2002 32.605 8.54324 34.715 10.2002 34.715C11.8567 34.715 13.2002 32.605 13.2002 30.0024C13.2002 28.344 11.8562 27.0005 10.2002 27.0005C8.54324 27.0005 7.2002 28.344 7.2002 30.0024Z" stroke="#89645F" stroke-width="2" stroke-miterlimit="10" stroke-linecap="round" stroke-linejoin="round"/>
<path d="M10.1998 40.1995C14.839 40.1995 18.5998 36.4387 18.5998 31.7995C18.5998 27.1603 14.839 23.3995 10.1998 23.3995C5.56061 23.3995 1.7998 27.1603 1.7998 31.7995C1.7998 36.4387 5.56061 40.1995 10.1998 40.1995Z" stroke="#89645F" stroke-width="2" stroke-miterlimit="10" stroke-linecap="round" stroke-linejoin="round"/>
<path d="M16.1992 37.6022L12.8575 36.2179C12.077 36.7886 11.1732 37.1141 10.2002 37.1141C9.22676 37.1141 8.32339 36.7886 7.54243 36.2179L4.2002 37.6022V37.6733C5.72468 39.2313 7.8482 40.2 10.2002 40.2C12.5517 40.2 14.6748 39.2313 16.1997 37.6752V37.6022H16.1992Z" stroke="#89645F" stroke-width="2" stroke-miterlimit="10" stroke-linecap="round" stroke-linejoin="round"/>
<path d="M28.8008 30.0024C28.8008 32.605 30.1438 34.715 31.8008 34.715C33.4568 34.715 34.7998 32.605 34.7998 30.0024C34.7998 28.344 33.4568 27.0005 31.8008 27.0005C30.1438 27.0005 28.8008 28.344 28.8008 30.0024Z" stroke="#89645F" stroke-width="2" stroke-miterlimit="10" stroke-linecap="round" stroke-linejoin="round"/>
<path d="M31.8004 40.1995C36.4396 40.1995 40.2004 36.4387 40.2004 31.7995C40.2004 27.1603 36.4396 23.3995 31.8004 23.3995C27.1612 23.3995 23.4004 27.1603 23.4004 31.7995C23.4004 36.4387 27.1612 40.1995 31.8004 40.1995Z" stroke="#89645F" stroke-width="2" stroke-miterlimit="10" stroke-linecap="round" stroke-linejoin="round"/>
<path d="M37.7984 37.6022L34.4561 36.2179C33.6761 36.7886 32.7723 37.1141 31.8003 37.1141C30.8273 37.1141 29.9235 36.7886 29.143 36.2179L25.7998 37.6022V37.6733C27.3248 39.2313 29.4483 40.2 31.7993 40.2C34.1499 40.2 36.2734 39.2313 37.7984 37.6752V37.6022Z" stroke="#89645F" stroke-width="2" stroke-miterlimit="10" stroke-linecap="round" stroke-linejoin="round"/>
<path d="M21 23.4V18.6V23.4Z" stroke="#89645F" stroke-width="2" stroke-miterlimit="10" stroke-linecap="round" stroke-linejoin="round"/>
<path d="M17.2148 27.1863L21.0001 23.4L24.7864 27.1863L21.0001 23.4L17.2148 27.1863Z" stroke="#89645F" stroke-width="2" stroke-miterlimit="10" stroke-linecap="round" stroke-linejoin="round"/>
</svg>
