<svg width="42" height="42" viewBox="0 0 42 42" fill="none" xmlns="http://www.w3.org/2000/svg">
<path d="M7.58018 16.1232L9.76034 13.2729C11.6602 15.1733 14.7403 15.1733 16.6397 13.2739L18.8227 16.1237C18.8703 15.659 18.9019 15.1853 18.9019 14.699C18.9019 11.5512 16.3488 8.99902 13.201 8.99902C10.0527 8.99902 7.50098 11.5512 7.50098 14.699C7.50098 15.1848 7.53218 15.6585 7.58018 16.1232Z" stroke="#89645F" stroke-width="2" stroke-miterlimit="10" stroke-linecap="round" stroke-linejoin="round"/>
<path d="M15.3799 24.5242C16.9543 24.5242 18.2306 23.2493 18.2296 21.6758C19.9903 23.436 22.4244 24.5242 25.1109 24.5242H26.621C26.1861 28.7938 23.8399 32.0592 21.0007 32.0592C18.162 32.0592 15.8148 28.7933 15.3799 24.5242Z" stroke="#89645F" stroke-width="2" stroke-miterlimit="10" stroke-linecap="round" stroke-linejoin="round"/>
<path d="M15.38 24.5242C16.9544 24.5242 18.2307 23.2493 18.2297 21.6759C19.9904 23.436 22.4245 24.5242 25.111 24.5242H26.6211C26.6701 24.06 26.7003 23.5872 26.7003 23.1C26.7003 19.9517 24.1486 17.3995 21.0008 17.3995C17.8525 17.3995 15.3008 19.9517 15.3008 23.1C15.3008 23.5872 15.332 24.06 15.38 24.5242Z" stroke="#89645F" stroke-width="2" stroke-miterlimit="10" stroke-linecap="round" stroke-linejoin="round"/>
<path d="M12.915 36.1714L17.1194 34.4304C17.4467 34.295 17.741 34.0973 17.9891 33.8525C18.4725 33.3677 18.771 32.6981 18.771 31.9608V31.3464C16.732 29.9827 15.3021 26.807 15.3006 23.1048C15.3026 27.4579 14.5288 31.8768 12.915 36.1714Z" stroke="#89645F" stroke-width="2" stroke-miterlimit="10" stroke-linecap="round" stroke-linejoin="round"/>
<path d="M29.086 36.1714L24.8812 34.4304C24.5538 34.2951 24.2586 34.0973 24.0129 33.8525C23.5285 33.3677 23.2295 32.6981 23.2295 31.9608V31.3464C25.2637 29.9856 26.6927 26.8195 26.6999 23.1269C26.7004 27.4728 27.4756 31.885 29.086 36.1714Z" stroke="#89645F" stroke-width="2" stroke-miterlimit="10" stroke-linecap="round" stroke-linejoin="round"/>
<path d="M23.1802 16.1232C26.2858 13.0176 31.3191 13.0186 34.4223 16.1237C34.4694 15.6581 34.5015 15.1853 34.5015 14.6981C34.5015 11.5503 31.9494 8.99811 28.8001 8.99811C25.6527 8.99811 23.0996 11.5503 23.0996 14.6981C23.0996 15.1853 23.1303 15.6581 23.1793 16.1237L23.1802 16.1232Z" stroke="#89645F" stroke-width="2" stroke-miterlimit="10" stroke-linecap="round" stroke-linejoin="round"/>
<path d="M20.9998 40.2C31.6037 40.2 40.1998 31.6039 40.1998 21C40.1998 10.3961 31.6037 1.79999 20.9998 1.79999C10.3959 1.79999 1.7998 10.3961 1.7998 21C1.7998 31.6039 10.3959 40.2 20.9998 40.2Z" stroke="#89645F" stroke-width="2" stroke-miterlimit="10" stroke-linecap="round" stroke-linejoin="round"/>
<path d="M13.1998 23.6568C12.4097 23.6568 11.6561 23.4019 10.9706 22.9431V23.557C10.9706 24.2967 10.6711 24.9648 10.1878 25.4496C9.94007 25.6959 9.64583 25.8936 9.31896 26.0285L3.3252 28.5115C3.81816 29.6712 4.42296 30.7719 5.12424 31.801H14.2524C14.9527 28.9099 15.3012 25.9915 15.3002 23.1048V23.1063C15.3002 23.1029 15.3002 23.1019 15.3002 23.1C15.3002 23.0717 15.3036 23.0439 15.3041 23.0146C14.6542 23.424 13.9442 23.6568 13.1998 23.6568Z" stroke="#89645F" stroke-width="2" stroke-miterlimit="10" stroke-linecap="round" stroke-linejoin="round"/>
<path d="M38.6728 28.5135L32.6804 26.0285C32.3516 25.8936 32.0593 25.6959 31.8102 25.4515C31.3283 24.9663 31.0283 24.2967 31.0283 23.557V22.9431C30.3457 23.4019 29.5921 23.6568 28.7992 23.6568C28.0566 23.6568 27.3476 23.424 26.6953 23.016C26.6953 23.0439 26.6992 23.0717 26.6992 23.1C26.6992 23.1125 26.6982 23.1231 26.6982 23.1351C26.6982 23.1327 26.6992 23.1288 26.6992 23.1264C26.6992 26.0083 27.0476 28.9171 27.746 31.8005H36.8737C37.5745 30.7719 38.1793 29.6727 38.6728 28.5135Z" stroke="#89645F" stroke-width="2" stroke-miterlimit="10" stroke-linecap="round" stroke-linejoin="round"/>
<path d="M26.6966 23.0189C27.347 23.4269 28.0555 23.6559 28.8005 23.6559C31.6392 23.6559 33.9869 20.3909 34.4227 16.1237C31.3195 13.0186 26.2862 13.0176 23.1806 16.1232L23.1797 16.1237C23.2459 16.7722 23.3602 17.3933 23.5099 17.988C25.3752 18.9043 26.665 20.8075 26.6966 23.0189Z" stroke="#89645F" stroke-width="2" stroke-miterlimit="10" stroke-linecap="round" stroke-linejoin="round"/>
<path d="M13.2004 23.6558C13.9444 23.6558 14.6533 23.4264 15.3042 23.0189C15.3354 20.8075 16.6257 18.9043 18.4914 17.9875C18.6407 17.3928 18.7564 16.7721 18.8221 16.1232L16.6391 13.2734C14.7397 15.1733 11.6596 15.1733 9.75974 13.2725L7.57958 16.1227H7.5791C8.01494 20.3909 10.3621 23.6558 13.2004 23.6558Z" stroke="#89645F" stroke-width="2" stroke-miterlimit="10" stroke-linecap="round" stroke-linejoin="round"/>
<path d="M24.8805 34.4304C24.5531 34.295 24.2579 34.0973 24.0121 33.8525C23.5278 33.3677 23.2288 32.6981 23.2288 31.9608V31.3464C22.5438 31.8038 21.7902 32.0592 20.9997 32.0592C20.2096 32.0592 19.4565 31.8038 18.7701 31.3464V31.9608C18.7701 32.6981 18.4715 33.3681 17.9882 33.8525C17.74 34.0973 17.4462 34.295 17.1184 34.4304L10.5938 37.1323C13.5937 39.0701 17.1635 40.2 20.9992 40.2C24.8353 40.2 28.4051 39.0701 31.4046 37.1323L24.8805 34.4304Z" stroke="#89645F" stroke-width="2" stroke-miterlimit="10" stroke-linecap="round" stroke-linejoin="round"/>
</svg>
