<svg width="42" height="42" viewBox="0 0 42 42" fill="none" xmlns="http://www.w3.org/2000/svg">
<path d="M34.552 9.73392C35.5326 8.7552 37.119 8.7552 38.0977 9.73584L40.1996 11.8373C40.2016 27.5026 27.5027 40.2 11.8379 40.2L9.73404 38.0971C8.75532 37.1174 8.75532 35.5301 9.73404 34.5514L15.0524 29.233C16.0321 28.2542 17.6195 28.2542 18.5992 29.233L20.3694 31.0037C21.8396 32.473 24.2204 32.473 25.6888 31.0037L31.0057 25.6862C32.4731 24.2179 32.4731 21.8376 31.0057 20.3678L29.2326 18.5952C28.2558 17.6165 28.2558 16.0306 29.2326 15.0514L34.552 9.73392Z" stroke="#89645F" stroke-width="2" stroke-miterlimit="10" stroke-linecap="round" stroke-linejoin="round"/>
<path d="M22.1993 1.80005H4.1998C2.8798 1.80005 1.7998 2.88005 1.7998 4.19957V16.2C1.7998 17.5196 2.8798 18.5991 4.1998 18.5991H14.9998L21.0008 24.5986V18.5991H22.1988C23.5208 18.5991 24.6008 17.5196 24.6008 16.2V4.19957C24.6012 2.88005 23.5212 1.80005 22.1993 1.80005Z" stroke="#89645F" stroke-width="2" stroke-miterlimit="10" stroke-linecap="round" stroke-linejoin="round"/>
<path d="M6.59961 6.59949H12.5996H6.59961Z" stroke="#89645F" stroke-width="2" stroke-miterlimit="10" stroke-linecap="round" stroke-linejoin="round"/>
<path d="M6.59961 10.1995H19.8001H6.59961Z" stroke="#89645F" stroke-width="2" stroke-miterlimit="10" stroke-linecap="round" stroke-linejoin="round"/>
<path d="M6.59961 13.7996H14.9996H6.59961Z" stroke="#89645F" stroke-width="2" stroke-miterlimit="10" stroke-linecap="round" stroke-linejoin="round"/>
</svg>
