<svg width="72" height="50" viewBox="0 0 72 50" fill="none" xmlns="http://www.w3.org/2000/svg">
<path d="M0.828125 21.0236H2.29671V22.2158H2.33276C2.42891 22.009 2.5611 21.824 2.72455 21.6509C2.89039 21.4851 3.06826 21.3409 3.27016 21.2159C3.47687 21.0933 3.7004 20.9995 3.93114 20.9322C4.1715 20.8625 4.40705 20.8289 4.64741 20.8289C4.88776 20.8289 5.10168 20.8625 5.30118 20.925L5.23869 22.5114C5.12091 22.4777 5.00073 22.4489 4.88055 22.4297C4.76278 22.408 4.6426 22.396 4.52242 22.3936C3.80616 22.3936 3.25574 22.5931 2.87597 22.9993C2.49621 23.3983 2.30392 24.0256 2.30392 24.8741V28.7607H0.828125C0.828125 28.7631 0.828125 21.0236 0.828125 21.0236ZM6.19771 24.8957C6.19771 24.3309 6.30107 23.7997 6.51499 23.3094C6.93321 22.3335 7.71437 21.5572 8.69263 21.1462C9.20218 20.9322 9.7526 20.8241 10.3054 20.8289C10.8582 20.8217 11.4087 20.9298 11.9182 21.1462C12.4061 21.3481 12.8484 21.6461 13.221 22.0211C13.5935 22.3936 13.8819 22.8215 14.0959 23.3094C14.3098 23.7997 14.4131 24.3309 14.4131 24.8957C14.4203 25.9773 13.9925 27.0157 13.221 27.7776C12.8484 28.143 12.4134 28.4314 11.9182 28.6381C11.4087 28.852 10.8582 28.9602 10.3054 28.9554C9.7526 28.9626 9.20218 28.8544 8.69263 28.6381C8.2071 28.4362 7.76484 28.143 7.38989 27.7776C7.01493 27.4099 6.71929 26.9724 6.51499 26.4893C6.30347 25.9846 6.19531 25.4438 6.19771 24.8957ZM7.76965 24.8957C7.76965 25.2875 7.83214 25.6457 7.94992 25.9774C8.06769 26.309 8.23835 26.5903 8.45467 26.8258C8.68061 27.0662 8.95221 27.2561 9.25266 27.3834C9.58916 27.5253 9.9497 27.595 10.315 27.5901C10.6804 27.595 11.0409 27.5253 11.3774 27.3834C11.6803 27.2536 11.9519 27.0638 12.1754 26.8258C12.3965 26.5927 12.5624 26.309 12.6802 25.9774C12.7979 25.6457 12.8604 25.2803 12.8604 24.8957C12.8604 24.504 12.7979 24.1458 12.6802 23.8141C12.572 23.5017 12.3989 23.2132 12.1754 22.9657C11.9495 22.7253 11.6779 22.5354 11.3774 22.408C11.0409 22.2662 10.6804 22.1965 10.315 22.2013C9.9497 22.1965 9.58916 22.2662 9.25266 22.408C8.94981 22.5378 8.6782 22.7277 8.45467 22.9657C8.22873 23.2084 8.05808 23.4993 7.94992 23.8141C7.82493 24.1386 7.76965 24.504 7.76965 24.8957ZM16.2663 16.4255H17.7349V22.2206H17.7709C17.956 21.8071 18.2733 21.4706 18.7348 21.2135C19.189 20.9587 19.7202 20.8289 20.3211 20.8289C20.6937 20.8289 21.0446 20.8842 21.3907 21.0019C21.7368 21.1197 22.0325 21.2904 22.2872 21.5331C22.542 21.7735 22.7487 22.0787 22.9002 22.4561C23.0516 22.8287 23.1285 23.2757 23.1285 23.7877V28.7631H21.6599V24.1939C21.6599 23.8358 21.6118 23.5257 21.5157 23.2709C21.434 23.0378 21.2994 22.8239 21.1239 22.6508C20.9629 22.497 20.7706 22.3792 20.5591 22.3071C20.3452 22.2374 20.1216 22.2037 19.8981 22.2037C19.5952 22.2037 19.3116 22.2518 19.0496 22.3479C18.79 22.4465 18.5545 22.6051 18.367 22.8094C18.1603 23.0426 18.0041 23.319 17.9127 23.617C17.8022 23.9415 17.7469 24.3261 17.7469 24.7756V28.7583H16.2783V16.4279H16.2663V16.4255ZM25.4552 16.4255H26.9237V28.7631H25.4552V16.4255ZM29.0317 18.2523C29.0317 17.9566 29.135 17.7066 29.349 17.4951C29.546 17.2884 29.8201 17.173 30.1061 17.1779C30.4017 17.1779 30.6517 17.2812 30.8632 17.4951C31.0771 17.709 31.1805 17.9566 31.1805 18.2523C31.1805 18.5479 31.0771 18.7955 30.8632 19.0094C30.6661 19.2161 30.3897 19.3315 30.1061 19.3267C29.8104 19.3267 29.5605 19.2233 29.349 19.0094C29.1422 18.8123 29.0269 18.5383 29.0317 18.2523ZM29.3706 21.0236H30.8392V28.7559H29.3706V21.0236ZM33.1754 16.4255H34.644V24.3862L37.973 21.0428H40.0136L36.4083 24.552L40.3237 28.7631H38.235L34.6416 24.7443V28.7631H33.173C33.1754 28.7631 33.1754 16.4255 33.1754 16.4255Z" fill="white"/>
<path d="M63.6074 40.6079C59.4876 41.3866 56.9134 44.9776 57.3485 45.415C57.7835 45.8404 60.139 47.2417 60.3385 47.0855C62.9031 44.9367 67.6454 44.7829 68.0492 45.2684C68.4554 45.7563 67.6334 41.002 67.6334 41.002C67.6334 41.002 67.1767 40.4204 65.5062 40.4204C64.999 40.4108 64.3741 40.4636 63.6074 40.6079ZM58.0335 33.551C53.9137 34.3297 51.3395 37.9207 51.7746 38.3581C52.2096 38.7835 53.5292 43.557 53.683 43.3503C55.7597 40.6006 59.8265 37.8293 62.4753 38.2019C62.8502 38.2548 62.9632 36.8126 62.7661 35.618C62.6315 34.808 62.1941 34.0918 62.1941 34.0918C62.1941 34.0918 62.1003 33.3226 60.2111 33.3226C59.6535 33.313 58.9372 33.3755 58.0335 33.551ZM55.8318 13.4162C53.7263 15.0675 49.1066 14.8583 45.9411 13.5196C45.7031 13.4162 46.6453 18.0455 46.4915 18.6368C46.3353 19.2184 50.354 21.0548 54.3175 19.6631C58.1585 18.3147 57.6585 17.1201 57.6585 17.1201C57.6585 17.1201 57.7739 16.5793 57.5552 15.9688C57.161 14.868 56.3101 13.385 55.9255 13.385C55.8943 13.3922 55.863 13.4018 55.8318 13.4162ZM57.048 4.79217C56.935 5.4147 52.7504 7.64762 49.4623 7.07557C49.2027 7.03471 47.8639 9.43107 47.7077 10.0127C47.5515 10.5944 51.5679 12.4307 55.5338 11.0391C58.6464 9.94784 58.918 8.61145 58.918 8.61145C58.918 8.61145 59.0117 7.55388 58.8651 7.04432C58.543 5.92425 57.4326 4.72968 57.1321 4.72968C57.0793 4.72006 57.0576 4.73929 57.048 4.79217Z" fill="white"/>
<path d="M66.698 45.4343C65.888 46.9798 64.2392 48.1119 63.3667 48.4436C64.78 48.8185 66.2317 49.0757 67.7051 49.2007V49.1791C69.5775 49.3978 71.2744 48.059 71.4932 46.1866C71.5436 45.7564 71.5124 45.3213 71.3994 44.9031C71.1398 43.9489 70.4236 43.1293 69.6232 42.7014C68.866 42.1198 68.2339 41.5285 67.5176 40.8531C67.5921 41.2929 67.8301 43.2759 66.698 45.4343ZM56.0093 45.2276C57.2784 46.0304 58.61 46.7226 59.9944 47.3043C60.5449 47.0759 62.0711 46.153 63.8137 43.2254C65.4313 40.5166 64.9338 38.0577 64.9338 38.0577C63.8858 36.7502 62.9412 35.3609 62.112 33.9067C62.4749 36.6228 59.2998 42.6534 56.0093 45.2276ZM44.7365 29.8663C46.1643 35.2383 49.2697 40.0118 53.6009 43.4946C58.4682 40.2354 60.7828 33.1256 58.8527 25.9245C56.9443 18.8027 51.4954 13.8321 45.7124 13.3442C43.6886 18.4301 43.2127 24.1795 44.7365 29.8663ZM49.3033 7.06361C48.4332 8.20051 47.6521 9.4047 46.9695 10.6642C51.0267 11.2963 56.5381 14.7551 57.6918 17.3894C57.6798 15.7357 57.8024 14.0845 58.0548 12.45C57.6389 11.4333 56.2689 9.70995 54.8171 8.75573C52.5866 7.28234 50.7599 7.03237 49.7937 7.03237C49.5942 7.04439 49.4283 7.054 49.3033 7.06361ZM56.2689 0.972952C56.0117 1.04506 55.7666 1.14601 55.531 1.2734V1.26138C54.1249 2.19397 52.8126 3.26596 51.618 4.45814C52.4376 4.25143 54.4302 4.35478 55.966 5.34025C57.9802 6.62857 58.7374 8.28703 58.9128 8.71487C59.2373 7.61884 59.6339 6.54444 60.0954 5.49648H60.0738C60.391 4.80666 60.4559 4.0279 60.2612 3.29481C59.8839 1.8767 58.6004 0.886423 57.1294 0.879213C56.8385 0.867195 56.5501 0.898441 56.2689 0.972952Z" fill="white"/>
<path d="M66.698 45.4343C65.888 46.9798 64.2392 48.1119 63.3667 48.4436C64.78 48.8185 66.2317 49.0757 67.7051 49.2007V49.1791C69.5775 49.3978 71.2744 48.059 71.4932 46.1866C71.5436 45.7564 71.5124 45.3213 71.3994 44.9031C71.1398 43.9489 70.4236 43.1293 69.6232 42.7014C68.866 42.1198 68.2339 41.5285 67.5176 40.8531C67.5921 41.2929 67.8301 43.2759 66.698 45.4343ZM56.0093 45.2276C57.2784 46.0304 58.61 46.7226 59.9944 47.3043C60.5449 47.0759 62.0711 46.153 63.8137 43.2254C65.4313 40.5166 64.9338 38.0577 64.9338 38.0577C63.8858 36.7502 62.9412 35.3609 62.112 33.9067C62.4749 36.6228 59.2998 42.6534 56.0093 45.2276ZM44.7365 29.8663C46.1643 35.2383 49.2697 40.0118 53.6009 43.4946C58.4682 40.2354 60.7828 33.1256 58.8527 25.9245C56.9443 18.8027 51.4954 13.8321 45.7124 13.3442C43.6886 18.4301 43.2127 24.1795 44.7365 29.8663ZM49.3033 7.06361C48.4332 8.20051 47.6521 9.4047 46.9695 10.6642C51.0267 11.2963 56.5381 14.7551 57.6918 17.3894C57.6798 15.7357 57.8024 14.0845 58.0548 12.45C57.6389 11.4333 56.2689 9.70995 54.8171 8.75573C52.5866 7.28234 50.7599 7.03237 49.7937 7.03237C49.5942 7.04439 49.4283 7.054 49.3033 7.06361ZM56.2689 0.972952C56.0117 1.04506 55.7666 1.14601 55.531 1.2734V1.26138C54.1249 2.19397 52.8126 3.26596 51.618 4.45814C52.4376 4.25143 54.4302 4.35478 55.966 5.34025C57.9802 6.62857 58.7374 8.28703 58.9128 8.71487C59.2373 7.61884 59.6339 6.54444 60.0954 5.49648H60.0738C60.391 4.80666 60.4559 4.0279 60.2612 3.29481C59.8839 1.8767 58.6004 0.886423 57.1294 0.879213C56.8385 0.867195 56.5501 0.898441 56.2689 0.972952Z" fill="white"/>
<path d="M6.19095 39.2955C6.41929 39.6031 6.71733 39.8507 7.08508 40.0358C7.45283 40.2209 7.86144 40.3146 8.3109 40.3146C8.70509 40.3146 9.04159 40.2569 9.318 40.144C9.59441 40.0286 9.81795 39.8723 9.9886 39.6753C10.1593 39.4782 10.2818 39.2474 10.3563 38.9806C10.4309 38.7162 10.4693 38.4326 10.4693 38.1322V37.1371H10.4453C10.1929 37.5168 9.88525 37.786 9.5199 37.9423C9.15696 38.1009 8.77239 38.1802 8.37099 38.1802C7.96719 38.1802 7.58983 38.1081 7.23891 37.9663C6.88799 37.8245 6.58033 37.6274 6.32074 37.3798C6.06116 37.1299 5.85445 36.8318 5.70543 36.4857C5.55641 36.1372 5.47949 35.7622 5.47949 35.3584C5.47949 34.9546 5.5516 34.5797 5.69341 34.2336C5.83522 33.885 6.03231 33.5822 6.27988 33.3202C6.52985 33.0582 6.82549 32.8563 7.16921 32.7097C7.51292 32.5631 7.89028 32.491 8.30129 32.491C8.46714 32.491 8.6426 32.5078 8.82767 32.539C9.01275 32.5703 9.19782 32.6256 9.3853 32.7049C9.57038 32.7842 9.75545 32.8924 9.93572 33.0318C10.1184 33.1712 10.2866 33.3466 10.4453 33.5582H10.4693V32.6328H11.2505V38.1322C11.2505 38.4326 11.212 38.7523 11.1375 39.0912C11.063 39.4301 10.9164 39.7426 10.7001 40.0286C10.4813 40.3122 10.1809 40.5502 9.79391 40.74C9.40694 40.9299 8.89978 41.0237 8.27725 41.0237C7.72443 41.0237 7.2293 40.9323 6.79665 40.7521C6.3616 40.5694 5.96742 40.2906 5.61169 39.9108L6.19095 39.2955ZM6.33276 35.3344C6.33276 35.6276 6.38564 35.9016 6.4938 36.1588C6.59956 36.416 6.74618 36.6419 6.93366 36.8342C7.11873 37.0289 7.33746 37.1827 7.58502 37.2957C7.835 37.4111 8.1042 37.4664 8.39743 37.4664C8.68106 37.4664 8.95266 37.4159 9.20984 37.3125C9.46703 37.2092 9.69296 37.065 9.89246 36.8799C10.0896 36.6948 10.241 36.4713 10.3491 36.2093C10.4549 35.9497 10.5054 35.6565 10.4982 35.332C10.4982 35.0388 10.4501 34.7647 10.3563 34.5076C10.2626 34.2504 10.1232 34.0244 9.94053 33.8322C9.75786 33.6399 9.53673 33.4836 9.27714 33.3707C9.01756 33.2553 8.72432 33.2 8.39984 33.2C8.1066 33.2 7.8374 33.2577 7.58743 33.3707C7.33746 33.486 7.12113 33.6399 6.93606 33.8322C6.75098 34.0269 6.60437 34.2504 6.4962 34.5076C6.38564 34.7696 6.33276 35.0436 6.33276 35.3344Z" fill="white"/>
<path d="M14.0359 34.3634C14.0359 34.1182 14.0287 33.8706 14.0191 33.6158C14.0071 33.3635 13.9974 33.0342 13.9902 32.6328H14.7618V33.6639H14.7858C14.8411 33.5149 14.9204 33.3707 15.0238 33.2313C15.1271 33.0943 15.2521 32.9693 15.3963 32.8587C15.5429 32.7481 15.7112 32.6592 15.9059 32.5919C16.1006 32.5246 16.3193 32.491 16.5645 32.491C16.7856 32.491 16.9803 32.515 17.1461 32.5631L16.9923 33.3346C16.8889 33.2962 16.7399 33.2745 16.5428 33.2745C16.2424 33.2745 15.9852 33.3322 15.7713 33.4452C15.5574 33.5606 15.3795 33.7072 15.2377 33.885C15.0959 34.0629 14.9901 34.2552 14.9228 34.4595C14.8555 34.6638 14.8219 34.8633 14.8219 35.0532V38.1802H14.0407V34.3634H14.0359Z" fill="white"/>
<path d="M24.2291 35.4065C24.2291 35.8247 24.1569 36.2117 24.0103 36.5674C23.8637 36.9232 23.6618 37.2308 23.3998 37.4928C23.1378 37.7548 22.8278 37.9567 22.4696 38.1033C22.1091 38.2499 21.7125 38.322 21.2775 38.322C20.8496 38.322 20.4578 38.2499 20.0973 38.1033C19.7368 37.9567 19.4267 37.7548 19.1671 37.4928C18.9075 37.2308 18.7032 36.9232 18.5566 36.5674C18.41 36.2117 18.3379 35.8247 18.3379 35.4065C18.3379 34.9883 18.41 34.6013 18.5566 34.2456C18.7032 33.8898 18.9051 33.5822 19.1671 33.3202C19.4291 33.0582 19.7368 32.8563 20.0973 32.7097C20.4578 32.5631 20.8496 32.491 21.2775 32.491C21.7125 32.491 22.1091 32.5631 22.4696 32.7097C22.8302 32.8563 23.1402 33.0582 23.3998 33.3202C23.6618 33.5798 23.8637 33.8898 24.0103 34.2456C24.1569 34.6013 24.2291 34.9883 24.2291 35.4065ZM23.3758 35.4065C23.3758 35.0988 23.3253 34.8104 23.2268 34.5412C23.1282 34.272 22.9864 34.0389 22.8061 33.8418C22.6235 33.6447 22.4047 33.4884 22.1476 33.3731C21.8904 33.2577 21.5995 33.2024 21.2751 33.2024C20.9506 33.2024 20.6597 33.2601 20.405 33.3731C20.1478 33.4884 19.9315 33.6447 19.7536 33.8418C19.5757 34.0389 19.4363 34.272 19.3378 34.5412C19.2392 34.8104 19.1888 35.0988 19.1888 35.4065C19.1888 35.7142 19.2392 36.0026 19.3378 36.2718C19.4363 36.541 19.5757 36.7741 19.7536 36.9712C19.9315 37.1683 20.1478 37.3246 20.405 37.4399C20.6621 37.5553 20.953 37.613 21.2751 37.613C21.5995 37.613 21.8904 37.5553 22.1476 37.4399C22.4047 37.3246 22.6235 37.1683 22.8061 36.9712C22.9888 36.7741 23.1282 36.541 23.2268 36.2718C23.3277 36.0026 23.3758 35.7142 23.3758 35.4065Z" fill="white"/>
<path d="M30.6059 38.1803C30.5891 38.0312 30.5795 37.8822 30.5771 37.7356C30.5723 37.589 30.5699 37.4424 30.5699 37.2909H30.5458C30.4593 37.44 30.3487 37.5794 30.2141 37.7068C30.0795 37.8342 29.9305 37.9423 29.7647 38.0336C29.5988 38.125 29.4234 38.1947 29.2383 38.2476C29.0532 38.298 28.8681 38.3245 28.6879 38.3245C27.9764 38.3245 27.45 38.137 27.1111 37.762C26.7722 37.3871 26.6016 36.8511 26.6016 36.1565V32.6352H27.3827V35.7046C27.3827 36.0122 27.4068 36.2862 27.4548 36.5218C27.5029 36.7598 27.5822 36.9593 27.6976 37.1203C27.813 37.2813 27.9668 37.4039 28.1591 37.488C28.3514 37.5722 28.5965 37.613 28.8874 37.613C28.9258 37.613 29.0364 37.5962 29.2191 37.565C29.4017 37.5337 29.5916 37.4472 29.7935 37.303C29.9954 37.1612 30.1757 36.9472 30.3319 36.6636C30.4905 36.38 30.5699 35.9834 30.5699 35.4786V32.6328H31.351V36.9592C31.351 37.1083 31.3582 37.2982 31.3679 37.5289C31.3799 37.7572 31.3943 37.976 31.4087 38.1803H30.6059Z" fill="white"/>
<path d="M34.1396 32.6328H34.9208V33.5582H34.9448C35.0722 33.3683 35.2213 33.2072 35.3943 33.0726C35.5674 32.938 35.75 32.8275 35.9399 32.7409C36.1298 32.6544 36.3245 32.5919 36.5264 32.5511C36.7283 32.5126 36.9182 32.491 37.1009 32.491C37.5359 32.491 37.9325 32.5631 38.293 32.7097C38.6536 32.8563 38.9636 33.0582 39.2232 33.3202C39.4852 33.5798 39.6871 33.8898 39.8337 34.2456C39.9803 34.6013 40.0524 34.9883 40.0524 35.4065C40.0524 35.8247 39.9803 36.2117 39.8337 36.5674C39.6871 36.9232 39.4852 37.2308 39.2232 37.4928C38.9612 37.7548 38.6512 37.9567 38.293 38.1033C37.9325 38.2499 37.5359 38.322 37.1009 38.322C36.9182 38.322 36.7283 38.3028 36.5264 38.262C36.3245 38.2235 36.1298 38.1586 35.9399 38.0721C35.75 37.9855 35.5674 37.875 35.3943 37.7404C35.2213 37.6058 35.0698 37.4447 34.9448 37.2549H34.9208V41.5933H34.1396V32.6328ZM39.2016 35.4065C39.2016 35.0988 39.1511 34.8104 39.0526 34.5412C38.954 34.272 38.8122 34.0389 38.6319 33.8418C38.4493 33.6447 38.2305 33.4884 37.9734 33.3731C37.7162 33.2577 37.4253 33.2024 37.1033 33.2024C36.7788 33.2024 36.4831 33.2601 36.2139 33.3731C35.9447 33.4884 35.7116 33.6447 35.5145 33.8418C35.3174 34.0389 35.1636 34.272 35.053 34.5412C34.9424 34.8104 34.8872 35.0988 34.8872 35.4065C34.8872 35.7142 34.9424 36.0026 35.053 36.2718C35.1636 36.541 35.3174 36.7741 35.5145 36.9712C35.7116 37.1683 35.9447 37.3246 36.2139 37.4399C36.4831 37.5553 36.7788 37.613 37.1033 37.613C37.4277 37.613 37.7186 37.5553 37.9734 37.4399C38.2305 37.3246 38.4493 37.1683 38.6319 36.9712C38.8146 36.7741 38.954 36.541 39.0526 36.2718C39.1511 36.0026 39.2016 35.7142 39.2016 35.4065Z" fill="white"/>
</svg>
