<?xml version="1.0" encoding="UTF-8"?>
<svg width="225px" height="53px" viewBox="0 0 225 53" version="1.1" xmlns="http://www.w3.org/2000/svg" xmlns:xlink="http://www.w3.org/1999/xlink">
    <title>TCF_v2_Beige</title>
    <defs>
        <rect id="path-1" x="0" y="0" width="225" height="52.3147585"></rect>
        <rect id="path-3" x="0" y="0" width="225" height="52.3147585"></rect>
        <rect id="path-5" x="0" y="0" width="225" height="52.3147585"></rect>
        <rect id="path-7" x="0" y="0" width="225" height="52.3147585"></rect>
        <rect id="path-9" x="0" y="0" width="225" height="52.3147585"></rect>
        <rect id="path-11" x="0" y="0" width="225" height="52.3147585"></rect>
        <rect id="path-13" x="0" y="0" width="225" height="52.3147585"></rect>
        <rect id="path-15" x="0" y="0" width="225" height="52.3147585"></rect>
    </defs>
    <g id="Web" stroke="none" stroke-width="1" fill="none" fill-rule="evenodd">
        <g id="TCF_Landing-Page" transform="translate(-135.000000, -75.000000)">
            <g id="TCF_v2_Beige" transform="translate(135.000000, 75.000000)">
                <g id="Clipped">
                    <mask id="mask-2" fill="white">
                        <use xlink:href="#path-1"></use>
                    </mask>
                    <g id="SVGID_1_"></g>
                    <path d="M160.804234,30.2226548 C159.46283,30.2226548 158.367806,29.7572697 157.464412,28.8264996 C156.561017,27.8957294 156.123008,26.7733301 156.123008,25.4045504 L156.123008,25.3771748 C156.123008,24.0357708 156.561017,22.8859959 157.464412,21.9552257 C158.367806,21.0244555 159.490206,20.5590704 160.83161,20.5590704 C161.625502,20.5590704 162.282516,20.6959484 162.857404,20.9423288 C163.404915,21.1887091 163.952427,21.5719674 164.472564,22.0373525 L163.760798,22.8038691 C162.857404,21.9552257 161.899258,21.5172162 160.83161,21.5172162 C159.791337,21.5172162 158.942694,21.8730989 158.258304,22.6122399 C157.573914,23.3513809 157.218031,24.2547755 157.218031,25.3224237 L157.218031,25.3497992 C157.218031,26.444823 157.573914,27.3482175 158.258304,28.0873586 C158.942694,28.8264996 159.791337,29.2097579 160.83161,29.2097579 C161.433873,29.2097579 161.954009,29.1002555 162.419394,28.8812508 C162.884779,28.662246 163.350164,28.3337389 163.815549,27.8683538 L164.499939,28.5527436 C163.979803,29.1002555 163.404915,29.5108894 162.830028,29.7846453 C162.282516,30.0857769 161.598126,30.2226548 160.804234,30.2226548" id="Path" fill="#F7E0CE" fill-rule="nonzero" mask="url(#mask-2)"></path>
                </g>
                <path d="M170.194063,26.6364521 L174.437279,26.6364521 L172.329359,21.8730989 L170.194063,26.6364521 Z M167.593381,30.0584013 L171.836598,20.6411972 L172.822119,20.6411972 L177.065336,30.0584013 L175.942937,30.0584013 L174.847913,27.5945979 L169.783429,27.5945979 L168.688405,30.0584013 L167.593381,30.0584013 L167.593381,30.0584013 Z" id="Shape" fill="#F7E0CE" fill-rule="nonzero"></path>
                <g id="Clipped">
                    <mask id="mask-4" fill="white">
                        <use xlink:href="#path-3"></use>
                    </mask>
                    <g id="SVGID_00000147203575664389975880000002832947253183529902_"></g>
                    <path d="M181.856065,25.8151843 L184.155615,25.8151843 C184.922132,25.8151843 185.55177,25.6235552 186.017155,25.2402969 C186.48254,24.8570386 186.701545,24.3642779 186.701545,23.7620148 L186.701545,23.7346393 C186.701545,23.077625 186.48254,22.5848643 186.017155,22.2289816 C185.579146,21.8730989 184.949507,21.7088454 184.182991,21.7088454 L181.82869,21.7088454 L181.82869,25.8151843 L181.856065,25.8151843 Z M180.788417,30.0584013 L180.788417,20.723324 L184.265117,20.723324 C185.332766,20.723324 186.154033,20.9970799 186.783672,21.5172162 C187.413311,22.0373525 187.741818,22.7764935 187.741818,23.6798881 L187.741818,23.7072637 C187.741818,24.6654094 187.385935,25.431926 186.701545,25.9520623 C186.017155,26.4721986 185.141136,26.7459545 184.100864,26.7459545 L181.82869,26.7459545 L181.82869,30.0310257 L180.788417,30.0310257 L180.788417,30.0584013 Z" id="Shape" fill="#F7E0CE" fill-rule="nonzero" mask="url(#mask-4)"></path>
                </g>
                <rect id="Rectangle" fill="#F7E0CE" fill-rule="nonzero" x="191.629152" y="20.723324" width="1.04027254" height="9.33507726"></rect>
                <polygon id="Path" fill="#F7E0CE" fill-rule="nonzero" points="199.622825 30.0584013 199.622825 21.6814698 196.474632 21.6814698 196.474632 20.723324 203.811291 20.723324 203.811291 21.6814698 200.663098 21.6814698 200.663098 30.0584013"></polygon>
                <path d="M208.109259,26.6364521 L212.352476,26.6364521 L210.244555,21.8730989 L208.109259,26.6364521 Z M205.508578,30.0584013 L209.751795,20.6411972 L210.737316,20.6411972 L214.980533,30.0584013 L213.858134,30.0584013 L212.76311,27.5945979 L207.698625,27.5945979 L206.603601,30.0584013 L205.508578,30.0584013 L205.508578,30.0584013 Z" id="Shape" fill="#F7E0CE" fill-rule="nonzero"></path>
                <polygon id="Path" fill="#F6E0CE" fill-rule="nonzero" points="218.703614 20.723324 218.703614 30.0584013 225 30.0584013 225 29.1002555 219.771262 29.1002555 219.771262 20.723324"></polygon>
                <rect id="Rectangle" fill="#F7E0CE" fill-rule="nonzero" x="17.6572576" y="1.42353084" width="13.7972989" height="49.4676968"></rect>
                <g id="Group">
                    <g id="Clipped">
                        <mask id="mask-6" fill="white">
                            <use xlink:href="#path-5"></use>
                        </mask>
                        <g id="SVGID_00000176738004724088971980000014779191688779794339_"></g>
                        <path d="M7.9662976,1.42353084 L0,1.42353084 L0,16.6991118 C0,16.6991118 0.0821267794,16.3432291 0.0821267794,16.3158535 C0.766516608,13.8520501 3.14819321,4.70860202 13.8246745,1.53303322 C13.8520501,1.53303322 14.0710549,1.45090644 14.0984305,1.45090644 L7.9662976,1.45090644 L7.9662976,1.42353084 Z" id="Path" fill="#F7E0CE" fill-rule="nonzero" mask="url(#mask-6)"></path>
                    </g>
                    <g id="Clipped">
                        <mask id="mask-8" fill="white">
                            <use xlink:href="#path-7"></use>
                        </mask>
                        <g id="SVGID_00000176738004724088971980000014779191688779794339_"></g>
                        <path d="M91.7629882,25.8425599 L97.2654824,3.91470982 C92.0367441,1.31402847 86.123616,0 79.7177272,0 C76.2410269,0 73.0654581,0.52013627 70.1910208,1.47828203 C70.3005232,1.47828203 70.38265,1.47828203 70.4921523,1.47828203 C75.6113882,1.47828203 81.2233848,5.69412337 91.708237,25.8151843 C91.7356126,25.8151843 91.7356126,25.8425599 91.7629882,25.8425599" id="Path" fill="#F7E0CE" fill-rule="nonzero" mask="url(#mask-8)"></path>
                    </g>
                    <g id="Clipped">
                        <mask id="mask-10" fill="white">
                            <use xlink:href="#path-9"></use>
                        </mask>
                        <g id="SVGID_00000176738004724088971980000014779191688779794339_"></g>
                        <path d="M73.5855944,34.4384962 C67.4534615,27.8409782 64.0862635,19.3545443 64.0862635,10.4848522 C64.0862635,7.44616133 64.7706534,5.06448473 66.0573062,3.53145151 C66.1668086,3.39457355 66.0846818,3.50407592 66.3858134,3.1755688 C59.1586568,7.14502981 54.9154398,14.6733179 54.9154398,24.4737803 C54.9154398,32.5495802 57.3792432,39.5029809 62.0604696,44.54009 C66.7964473,49.6319504 73.339214,52.3421341 81.0317557,52.3421341 C88.0946587,52.3421341 94.8564302,49.1665653 98.6342621,44.2663341 C98.6616377,44.2389585 98.6890133,44.1842073 98.7163889,44.1568317 C98.6616377,44.1568317 98.6068865,44.1842073 98.5247597,44.1842073 C97.292858,44.4032121 95.9514539,44.4853388 94.8290546,44.4853388 C87.2460153,44.4305877 79.4987225,40.7896338 73.5855944,34.4384962" id="Path" fill="#F7E0CE" fill-rule="nonzero" mask="url(#mask-10)"></path>
                    </g>
                </g>
                <rect id="Rectangle" fill="#F7E0CE" fill-rule="nonzero" x="110.487894" y="1.42353084" width="13.7972989" height="49.4676968"></rect>
                <g id="Group">
                    <g id="Clipped">
                        <mask id="mask-12" fill="white">
                            <use xlink:href="#path-11"></use>
                        </mask>
                        <g id="SVGID_00000072279264683197492110000010124072124256663189_"></g>
                        <path d="M41.1455165,1.42353084 L49.1118141,1.42353084 L49.1118141,16.6991118 C49.1118141,16.6991118 49.0296873,16.3432291 49.0296873,16.3158535 C48.3452975,13.8520501 45.9636209,4.70860202 35.2871396,1.53303322 C35.259764,1.53303322 35.0407592,1.45090644 35.0133836,1.45090644 L41.1455165,1.45090644 L41.1455165,1.42353084 Z" id="Path" fill="#F7E0CE" fill-rule="nonzero" mask="url(#mask-12)"></path>
                    </g>
                    <g id="Clipped">
                        <mask id="mask-14" fill="white">
                            <use xlink:href="#path-13"></use>
                        </mask>
                        <g id="SVGID_00000072279264683197492110000010124072124256663189_"></g>
                        <path d="M137.042219,1.42353084 L145.501278,1.42353084 L145.501278,14.4816888 C145.501278,14.4816888 145.419151,14.1805572 145.419151,14.1531817 C144.68001,12.045261 142.188831,4.21584134 130.82796,1.47828203 C130.800584,1.47828203 130.554204,1.42353084 130.526828,1.39615525 L137.042219,1.39615525 L137.042219,1.42353084 Z" id="Path" fill="#F7E0CE" fill-rule="nonzero" mask="url(#mask-14)"></path>
                    </g>
                    <g id="Clipped">
                        <mask id="mask-16" fill="white">
                            <use xlink:href="#path-15"></use>
                        </mask>
                        <g id="SVGID_00000072279264683197492110000010124072124256663189_"></g>
                        <path d="M137.179097,19.4366711 C134.55104,22.0373525 130.773208,24.2000243 127.40601,25.1855457 C127.241757,25.2402969 127.077503,25.2676725 126.940625,25.3224237 C127.104879,25.3497992 127.269132,25.4045504 127.40601,25.4593016 C130.773208,26.444823 134.578416,28.6074948 137.179097,31.2081762 C137.2886,31.3176785 137.370726,31.3998053 137.480229,31.5093077 L137.480229,25.2950481 L137.480229,19.1355396 C137.370726,19.2176664 137.261224,19.3271688 137.179097,19.4366711" id="Path" fill="#F7E0CE" fill-rule="nonzero" mask="url(#mask-16)"></path>
                    </g>
                </g>
            </g>
        </g>
    </g>
</svg>