<?xml version="1.0" standalone="no"?>
<!DOCTYPE svg PUBLIC "-//W3C//DTD SVG 20010904//EN"
 "http://www.w3.org/TR/2001/REC-SVG-20010904/DTD/svg10.dtd">
<svg version="1.0" xmlns="http://www.w3.org/2000/svg"
 width="192.000000pt" height="192.000000pt" viewBox="0 0 192.000000 192.000000"
 preserveAspectRatio="xMidYMid meet">
<metadata>
Created by potrace 1.14, written by Peter Selinger 2001-2017
</metadata>
<g transform="translate(0.000000,192.000000) scale(0.100000,-0.100000)"
fill="#000000" stroke="none">
<path d="M0 960 l0 -960 960 0 960 0 0 960 0 960 -960 0 -960 0 0 -960z m1162
264 c35 -10 58 -22 58 -31 0 -7 -12 -61 -26 -119 l-27 -105 -34 62 c-46 83
-107 163 -138 179 -14 7 -25 17 -25 22 0 14 131 9 192 -8z m-887 -6 c-32 -17
-66 -50 -86 -83 l-19 -30 0 63 0 62 63 0 c51 -1 58 -3 42 -12z m235 -253 l0
-265 -75 0 -75 0 0 265 0 265 75 0 75 0 0 -265z m190 198 l-1 -68 -20 38 c-11
20 -38 51 -61 67 l-41 30 61 0 62 0 0 -67z m820 -203 l0 -270 -70 0 -70 0 0
270 0 270 70 0 70 0 0 -270z m230 215 l0 -56 -32 36 c-17 20 -47 45 -67 55
l-36 19 68 1 67 0 0 -55z m-881 -2 c-17 -45 -1 -137 38 -213 56 -112 157 -187
272 -199 l56 -6 -35 -26 c-101 -75 -256 -64 -346 26 -105 105 -114 310 -18
409 42 43 47 44 33 9z m787 -250 c-3 -3 -17 4 -33 14 -15 11 -34 22 -42 25 -9
2 3 14 30 30 l44 26 3 -45 c2 -25 1 -47 -2 -50z"/>
</g>
</svg>
