<svg width="38" height="36" viewBox="0 0 38 36" fill="none" xmlns="http://www.w3.org/2000/svg">
<path d="M22.6006 10.8005H32.2001H22.6006Z" stroke="#89645F" stroke-width="2" stroke-miterlimit="10" stroke-linecap="round" stroke-linejoin="round"/>
<path d="M22.6006 15.6H32.2001H22.6006Z" stroke="#89645F" stroke-width="2" stroke-miterlimit="10" stroke-linecap="round" stroke-linejoin="round"/>
<path d="M22.6006 20.4005H32.2001H22.6006Z" stroke="#89645F" stroke-width="2" stroke-miterlimit="10" stroke-linecap="round" stroke-linejoin="round"/>
<path d="M11.7998 8.40002C13.7865 8.40002 15.5875 9.20642 16.8902 10.5096L11.7998 15.6V8.40002Z" stroke="#89645F" stroke-width="2" stroke-miterlimit="10" stroke-linecap="round" stroke-linejoin="round"/>
<path d="M16.8907 20.6914C18.1939 19.3882 18.9993 17.5882 18.9993 15.6C18.9993 13.6119 18.1939 11.8119 16.8907 10.5096L11.7998 15.6L16.8907 20.6914Z" stroke="#89645F" stroke-width="2" stroke-miterlimit="10" stroke-linecap="round" stroke-linejoin="round"/>
<path d="M11.7996 8.40002C7.82281 8.40002 4.59961 11.6247 4.59961 15.6C4.59961 19.5768 7.82281 22.7995 11.7996 22.7995C13.7863 22.7995 15.5873 21.9941 16.89 20.6914L11.7996 15.6V8.40002Z" stroke="#89645F" stroke-width="2" stroke-miterlimit="10" stroke-linecap="round" stroke-linejoin="round"/>
<path d="M37 3.60144H1V27.6H37V3.60144Z" stroke="#89645F" stroke-width="2" stroke-miterlimit="10" stroke-linecap="round" stroke-linejoin="round"/>
<path d="M25 1.19995H13V3.60139H25V1.19995Z" stroke="#89645F" stroke-width="2" stroke-miterlimit="10" stroke-linecap="round" stroke-linejoin="round"/>
<path d="M19.001 34.8V27.6V34.8Z" stroke="#89645F" stroke-width="2" stroke-miterlimit="10" stroke-linecap="round" stroke-linejoin="round"/>
<path d="M11.7998 34.8L19.0008 27.6L26.1993 34.8L19.0008 27.6L11.7998 34.8Z" stroke="#89645F" stroke-width="2" stroke-miterlimit="10" stroke-linecap="round" stroke-linejoin="round"/>
</svg>
