<svg width="40" height="42" viewBox="0 0 40 42" fill="none" xmlns="http://www.w3.org/2000/svg">
<path d="M31.5835 8.99329C23.75 5.68081 15.3412 5.92417 8.08301 8.99521V22.2365C8.08301 27.6039 10.214 32.4643 13.6586 35.9822L13.6567 35.9842C15.4117 37.7736 17.5051 39.2126 19.833 40.2C22.1614 39.2126 24.2552 37.7736 26.0097 35.9842L26.0083 35.9822C29.453 32.4643 31.5835 27.6039 31.5835 22.2365V8.99329V8.99329Z" stroke="#89645F" stroke-width="2" stroke-miterlimit="10" stroke-linecap="round" stroke-linejoin="round"/>
<path d="M14.2501 36.5323C12.865 37.0743 11.1377 37.3997 9.25867 37.3997C4.71565 37.3997 1.0332 35.5191 1.0332 33.1992V35.9991C1.0332 38.3194 4.71565 40.2 9.25867 40.2C12.2258 40.2 14.8183 39.3946 16.2645 38.1907C15.5543 37.6867 14.8855 37.129 14.2501 36.5323Z" stroke="#89645F" stroke-width="2" stroke-miterlimit="10" stroke-linecap="round" stroke-linejoin="round"/>
<path d="M13.6569 35.9841L13.6588 35.9822C13.1188 35.4312 12.6145 34.8422 12.1421 34.2273C11.8691 34.2413 11.5941 34.2509 11.3149 34.2509C7.00878 34.2509 3.48143 32.5608 3.12423 30.4089C1.82797 31.1515 1.0332 32.1269 1.0332 33.1992C1.0332 35.519 4.71565 37.3997 9.25867 37.3997C11.1377 37.3997 12.8645 37.0742 14.2501 36.5323C14.0531 36.3489 13.8459 36.1761 13.6569 35.9841Z" stroke="#89645F" stroke-width="2" stroke-miterlimit="10" stroke-linecap="round" stroke-linejoin="round"/>
<path d="M10.3386 31.4198C6.25761 31.1721 3.08887 29.4019 3.08887 27.2501V30.0504C3.08887 32.3712 6.77273 34.2504 11.3153 34.2504C11.5945 34.2504 11.8713 34.2427 12.1444 34.2288C11.4671 33.3499 10.8608 32.4115 10.3386 31.4198Z" stroke="#89645F" stroke-width="2" stroke-miterlimit="10" stroke-linecap="round" stroke-linejoin="round"/>
<path d="M8.11881 23.3803C5.16298 24.0168 3.08887 25.5105 3.08887 27.2505C3.08887 29.4019 6.25761 31.1726 10.3386 31.4203C9.0668 29.0006 8.28331 26.2752 8.11881 23.3803Z" stroke="#89645F" stroke-width="2" stroke-miterlimit="10" stroke-linecap="round" stroke-linejoin="round"/>
<path d="M8.08278 8.9952C11.7488 7.44432 15.7085 6.61728 19.7388 6.60336C19.7947 6.4056 19.8332 6.20544 19.8332 6.00048C19.8332 3.68208 16.1513 1.80048 11.6082 1.80048C7.0657 1.80048 3.38184 3.68208 3.38184 6.00048C3.38184 7.67424 5.30555 9.11616 8.08231 9.79104V8.9952H8.08278Z" stroke="#89645F" stroke-width="2" stroke-miterlimit="10" stroke-linecap="round" stroke-linejoin="round"/>
<path d="M8.08328 9.79056C5.30605 9.11568 3.38281 7.67376 3.38281 6V8.79984C3.38281 10.4746 5.30652 11.916 8.08328 12.5904V9.79056Z" stroke="#89645F" stroke-width="2" stroke-miterlimit="10" stroke-linecap="round" stroke-linejoin="round"/>
<path d="M19.8337 6.6048V6C19.8337 6.20544 19.7952 6.4056 19.7393 6.60288C19.7707 6.60288 19.8022 6.6048 19.8337 6.6048Z" stroke="#89645F" stroke-width="2" stroke-miterlimit="10" stroke-linecap="round" stroke-linejoin="round"/>
<path d="M31.5833 17.8478V22.2365C31.5833 23.5872 31.4475 24.9067 31.1904 26.1806C35.3654 25.9781 38.6329 24.1838 38.6329 21.9984C38.6329 19.885 35.5671 18.1397 31.5833 17.8478Z" stroke="#89645F" stroke-width="2" stroke-miterlimit="10" stroke-linecap="round" stroke-linejoin="round"/>
<path d="M31.1904 26.1807C30.9948 27.1483 30.7279 28.0896 30.3975 28.9997C30.4017 28.9997 30.405 28.9997 30.4087 28.9997C34.9504 28.9997 38.6323 27.1191 38.6323 24.7997V21.9984C38.6328 24.1839 35.3654 25.9781 31.1904 26.1807Z" stroke="#89645F" stroke-width="2" stroke-miterlimit="10" stroke-linecap="round" stroke-linejoin="round"/>
<path d="M25.1204 19.1995H21.5954V15.5995H18.0704V19.1995H14.5449V22.8H18.0704V26.4H21.5954V22.8H25.1204V19.1995Z" stroke="#89645F" stroke-width="2" stroke-miterlimit="10" stroke-linecap="round" stroke-linejoin="round"/>
</svg>
