<svg width="19" height="18" viewBox="0 0 19 18" fill="none" xmlns="http://www.w3.org/2000/svg">
<path d="M16.8089 0C17.3393 0 17.848 0.210714 18.2231 0.585786C18.5982 0.960859 18.8089 1.46957 18.8089 2V16C18.8089 16.5304 18.5982 17.0391 18.2231 17.4142C17.848 17.7893 17.3393 18 16.8089 18H2.80891C2.27847 18 1.76977 17.7893 1.39469 17.4142C1.01962 17.0391 0.808907 16.5304 0.808907 16V2C0.808907 1.46957 1.01962 0.960859 1.39469 0.585786C1.76977 0.210714 2.27847 0 2.80891 0H16.8089ZM16.3089 15.5V10.2C16.3089 9.33539 15.9654 8.5062 15.3541 7.89483C14.7427 7.28346 13.9135 6.94 13.0489 6.94C12.1989 6.94 11.2089 7.46 10.7289 8.24V7.13H7.93891V15.5H10.7289V10.57C10.7289 9.8 11.3489 9.17 12.1189 9.17C12.4902 9.17 12.8463 9.3175 13.1089 9.58005C13.3714 9.8426 13.5189 10.1987 13.5189 10.57V15.5H16.3089ZM4.68891 5.56C5.13447 5.56 5.56179 5.383 5.87685 5.06794C6.19191 4.75288 6.36891 4.32556 6.36891 3.88C6.36891 2.95 5.61891 2.19 4.68891 2.19C4.24069 2.19 3.81083 2.36805 3.4939 2.68499C3.17696 3.00193 2.99891 3.43178 2.99891 3.88C2.99891 4.81 3.75891 5.56 4.68891 5.56ZM6.07891 15.5V7.13H3.30891V15.5H6.07891Z" fill="#24343F"/>
</svg>
