<svg width="96" height="21" viewBox="0 0 96 21" fill="none" xmlns="http://www.w3.org/2000/svg">
<path d="M9.39504 16.9604H8.07284V16.9518C7.7163 16.066 7.54358 15.1171 7.56516 14.1626C7.58847 13.8268 7.53771 13.4901 7.41647 13.1762C7.29523 12.8623 7.10647 12.5789 6.86355 12.346C6.62064 12.1131 6.3295 11.9365 6.01076 11.8286C5.69201 11.7206 5.35344 11.6841 5.01902 11.7216H1.2067V16.9535H0V4.56755H4.6346C5.86329 4.48515 7.08233 4.83319 8.08232 5.55187C8.45518 5.86916 8.75013 6.2679 8.94442 6.71729C9.1387 7.16668 9.22711 7.65471 9.20283 8.14369C9.21992 8.54784 9.15316 8.95115 9.00675 9.32823C8.86033 9.70531 8.63744 10.048 8.3521 10.3347C7.80847 10.8367 7.11498 11.1462 6.37828 11.2156C7.04789 11.3136 7.66206 11.643 8.11421 12.1465C8.51606 12.6631 8.74523 13.293 8.76928 13.9471L8.77704 14.0333C8.92701 15.7838 8.98821 16.5079 9.38987 16.9561L9.39504 16.9604ZM1.2067 5.60186V10.6933H4.66649V10.7019C5.53384 10.7688 6.39885 10.5457 7.12558 10.0675C7.40409 9.83464 7.62281 9.53848 7.76346 9.20379C7.90411 8.86911 7.96261 8.50561 7.93407 8.14369C7.95368 7.79748 7.894 7.45135 7.75956 7.1317C7.62513 6.81204 7.41949 6.5273 7.15833 6.29916C6.43394 5.78433 5.55289 5.53778 4.66649 5.60186H1.2067Z" fill="#2E4760"/>
<path d="M15.5657 16.9525H14.4193L9.55542 4.56738H10.7018L15.5657 16.9525Z" fill="#2E4760"/>
<path d="M20.8553 4.56738H22.0017L17.1378 16.9611H15.9915L20.8553 4.56738Z" fill="#2E4760"/>
<path d="M24.2202 4.56738V15.9173H31.2622V16.9602H22.9919V4.56738H24.2202Z" fill="#2E4760"/>
<path d="M34.1281 16.9525V5.6017H29.5918V4.56738H39.9419V5.61032H35.3478V16.9611H34.1281V16.9525Z" fill="#2E4760"/>
<path d="M47.4407 8.77724C47.2948 8.67717 47.1219 8.62395 46.9451 8.62468C46.7921 8.63028 46.6468 8.69291 46.5377 8.80026C46.4286 8.90762 46.3636 9.05191 46.3555 9.20476L46.2546 9.75639H47.2321L46.9442 10.2494H46.1685L45.5358 13.4705C45.4599 14.0092 45.2361 14.5164 44.8893 14.9357L44.4006 14.6091C44.6536 14.2613 44.8211 13.8588 44.8893 13.4342L45.5074 10.2494H45.141L45.2341 9.75467H45.5935L45.6866 9.26854C45.7084 9.07324 45.7716 8.88485 45.8721 8.71598C45.9726 8.54711 46.108 8.40166 46.2693 8.28939C46.4805 8.16655 46.7225 8.10673 46.9666 8.117C47.2247 8.10333 47.4807 8.16922 47.7001 8.30576L47.4407 8.77724Z" fill="#2E4760"/>
<path d="M48.4456 13.4842C48.2739 13.4973 48.1014 13.472 47.9407 13.41C47.78 13.3481 47.6351 13.2511 47.5166 13.1261C47.3982 13.0011 47.309 12.8512 47.2558 12.6874C47.2025 12.5237 47.1864 12.3501 47.2087 12.1793C47.2087 10.7442 48.0801 9.66158 49.236 9.66158C49.4076 9.64752 49.5803 9.67195 49.7413 9.73309C49.9024 9.79423 50.0477 9.89054 50.1668 10.015C50.2859 10.1395 50.3757 10.2889 50.4297 10.4525C50.4837 10.6161 50.5005 10.7896 50.4789 10.9605C50.4789 12.4198 49.6221 13.4842 48.4456 13.4842ZM49.1205 10.1917C48.3456 10.1917 47.9276 11.2415 47.9276 12.2293C47.9276 12.7171 48.137 12.955 48.5671 12.955C49.3429 12.955 49.7531 11.9259 49.7531 10.9097C49.7531 10.3158 49.4092 10.1917 49.1205 10.1917Z" fill="#2E4760"/>
<path d="M53.1681 10.3943C53.0908 10.3625 53.0077 10.3475 52.9242 10.3503C52.6294 10.3503 52.2993 10.5968 51.9683 11.0898L51.4865 13.3972H50.8323L51.3494 10.945C51.399 10.7258 51.4278 10.5025 51.4356 10.2779C51.4381 10.1576 51.4213 10.0377 51.3856 9.92279L52.0036 9.64697C52.0587 9.79046 52.0857 9.94322 52.0829 10.0969C52.0807 10.2126 52.0685 10.328 52.0467 10.4417C52.1657 10.2386 52.3277 10.0639 52.5212 9.92992C52.7148 9.79592 52.9352 9.70583 53.1672 9.66594C53.2651 9.66228 53.3628 9.6772 53.4551 9.70989L53.1681 10.3943Z" fill="#2E4760"/>
<g clip-path="url(#clip0_50_515)">
<path d="M65.4326 4.38086H61.7336V17.619H65.4326V4.38086Z" fill="#24343F"/>
<path d="M59.1357 4.38086H57V8.46877C57 8.46877 57.022 8.37353 57.022 8.36621C57.2055 7.70687 57.844 5.25998 60.7062 4.41016C60.7136 4.41016 60.7723 4.38819 60.7796 4.38819H59.1357V4.38086Z" fill="#24343F"/>
<path d="M81.6006 10.9158L83.0758 5.04762C81.674 4.35165 80.0887 4 78.3714 4C77.4393 4 76.588 4.13919 75.8174 4.3956C75.8467 4.3956 75.8688 4.3956 75.8981 4.3956C77.2705 4.3956 78.775 5.52381 81.5859 10.9084C81.5933 10.9084 81.5933 10.9158 81.6006 10.9158Z" fill="#24343F"/>
<path d="M76.7274 13.2159C75.0835 11.4503 74.1808 9.17928 74.1808 6.80565C74.1808 5.99247 74.3642 5.3551 74.7092 4.94485C74.7385 4.90822 74.7165 4.93752 74.7973 4.84961C72.8597 5.91188 71.7222 7.92653 71.7222 10.5492C71.7222 12.7104 72.3827 14.5712 73.6377 15.9192C74.9073 17.2818 76.6614 18.0071 78.7237 18.0071C80.6172 18.0071 82.4299 17.1573 83.4427 15.8459C83.4501 15.8386 83.4574 15.824 83.4647 15.8166C83.4501 15.8166 83.4354 15.824 83.4134 15.824C83.0831 15.8826 82.7235 15.9046 82.4226 15.9046C80.3896 15.8899 78.3127 14.9155 76.7274 13.2159Z" fill="#24343F"/>
<path d="M90.3195 4.38086H86.6206V17.619H90.3195V4.38086Z" fill="#24343F"/>
<path d="M68.0307 4.38086H70.1664V8.46877C70.1664 8.46877 70.1443 8.37353 70.1443 8.36621C69.9609 7.70687 69.3224 5.25998 66.4601 4.41016C66.4528 4.41016 66.3941 4.38819 66.3867 4.38819H68.0307V4.38086Z" fill="#24343F"/>
<path d="M93.7396 4.38086H96.0074V7.87537C96.0074 7.87537 95.9854 7.79478 95.9854 7.78745C95.7872 7.22335 95.1194 5.12811 92.0737 4.39551C92.0663 4.39551 92.0003 4.38086 91.9929 4.37354H93.7396V4.38086Z" fill="#24343F"/>
<path d="M93.7763 9.19387C93.0718 9.88984 92.059 10.4686 91.1563 10.7323C91.1122 10.747 91.0682 10.7543 91.0315 10.769C91.0755 10.7763 91.1196 10.7909 91.1563 10.8056C92.059 11.0693 93.0791 11.6481 93.7763 12.344C93.8057 12.3734 93.8277 12.3953 93.857 12.4246V10.769V9.12061C93.8277 9.14258 93.7983 9.17189 93.7763 9.19387Z" fill="#24343F"/>
</g>
<defs>
<clipPath id="clip0_50_515">
<rect width="39" height="14" fill="white" transform="translate(57 4)"/>
</clipPath>
</defs>
</svg>
