<svg width="42" height="42" viewBox="0 0 42 42" fill="none" xmlns="http://www.w3.org/2000/svg">
<path d="M23.1328 1.80005V6.06677V1.80005Z" stroke="#89645F" stroke-width="2" stroke-miterlimit="10" stroke-linecap="round" stroke-linejoin="round"/>
<path d="M35.9336 18.8668H40.2003H35.9336Z" stroke="#89645F" stroke-width="2" stroke-miterlimit="10" stroke-linecap="round" stroke-linejoin="round"/>
<path d="M14.6006 4.08618L16.7332 7.78266L14.6006 4.08618Z" stroke="#89645F" stroke-width="2" stroke-miterlimit="10" stroke-linecap="round" stroke-linejoin="round"/>
<path d="M29.5332 29.9525L31.6663 33.6471L29.5332 29.9525Z" stroke="#89645F" stroke-width="2" stroke-miterlimit="10" stroke-linecap="round" stroke-linejoin="round"/>
<path d="M4.08691 31.6666L7.78147 29.5339L4.08691 31.6666Z" stroke="#89645F" stroke-width="2" stroke-miterlimit="10" stroke-linecap="round" stroke-linejoin="round"/>
<path d="M34.2178 12.4671L37.9133 10.333L34.2178 12.4671Z" stroke="#89645F" stroke-width="2" stroke-miterlimit="10" stroke-linecap="round" stroke-linejoin="round"/>
<path d="M8.35352 10.333L12.0476 12.4671L8.35352 10.333Z" stroke="#89645F" stroke-width="2" stroke-miterlimit="10" stroke-linecap="round" stroke-linejoin="round"/>
<path d="M34.2178 25.2667L37.9143 27.3998L34.2178 25.2667Z" stroke="#89645F" stroke-width="2" stroke-miterlimit="10" stroke-linecap="round" stroke-linejoin="round"/>
<path d="M10.332 37.9143L12.4661 34.2183L10.332 37.9143Z" stroke="#89645F" stroke-width="2" stroke-miterlimit="10" stroke-linecap="round" stroke-linejoin="round"/>
<path d="M29.5332 7.78229L31.6654 4.08582L29.5332 7.78229Z" stroke="#89645F" stroke-width="2" stroke-miterlimit="10" stroke-linecap="round" stroke-linejoin="round"/>
<path d="M16.7326 23.1327H1.7998C1.7998 32.5589 9.44045 40.2001 18.8667 40.2001V25.2668C17.6883 25.2668 16.7326 24.3111 16.7326 23.1327Z" stroke="#89645F" stroke-width="2" stroke-miterlimit="10" stroke-linecap="round" stroke-linejoin="round"/>
<path d="M23.1328 16.7332V10.3339V16.7332Z" stroke="#89645F" stroke-width="2" stroke-miterlimit="10" stroke-linecap="round" stroke-linejoin="round"/>
<path d="M30.5234 23.1336L24.9727 19.9291L30.5234 23.1336Z" stroke="#89645F" stroke-width="2" stroke-miterlimit="10" stroke-linecap="round" stroke-linejoin="round"/>
<path d="M23.1331 21C24.3112 21 25.2662 20.045 25.2662 18.8669C25.2662 17.6888 24.3112 16.7338 23.1331 16.7338C21.955 16.7338 21 17.6888 21 18.8669C21 20.045 21.955 21 23.1331 21Z" stroke="#89645F" stroke-width="2" stroke-miterlimit="10" stroke-linecap="round" stroke-linejoin="round"/>
<path d="M23.1333 1.80005C13.708 1.80005 6.06641 9.44069 6.06641 18.8669H21.0002C21.0002 17.688 21.9549 16.7333 23.1333 16.7333C24.3112 16.7333 25.2659 17.688 25.2659 18.8669C25.2659 20.0448 24.3112 20.9996 23.1333 20.9996V35.9329C32.559 35.9329 40.2002 28.2922 40.2002 18.8669C40.2002 9.44069 32.559 1.80005 23.1333 1.80005Z" stroke="#89645F" stroke-width="2" stroke-miterlimit="10" stroke-linecap="round" stroke-linejoin="round"/>
</svg>
