<?xml version="1.0" encoding="UTF-8"?>
<svg id="Vrstva_2" data-name="Vrstva 2" xmlns="http://www.w3.org/2000/svg" viewBox="0 0 65.91 67.75">
  <g id="Vrstva_1-2" data-name="Vrstva 1">
    <path d="M18.95,41.05c-.4-6.37-.12-12.59-.6-18.78-.06-.76-.44-2.11,.52-2.17,1.36-.09,.81,1.35,.81,2.1-.02,5.01,.05,10.01,.41,15.01,.14,1.89,.14,2.89,.5,4.75,.26,1.32,.55,2.04-.22,2.26-.7,.2-1.07-.22-1.35-.84-2.96-6.45-6.65-12.51-10.27-18.6-1.76-2.95-1.72-4.65,.5-6.96,1.09-1.13,1.55-1.18-.49-1.87-2.96-1-5.94-2-8.26-4.29-.79-.78-.58-1.85,.2-2.7C3.79,5.63,7.26,4.35,10.32,3.45,20.71,.39,31.51-.2,42.21,.05c5.94,.14,11.7,.55,17.57,1.59,1.74,.31,3.39,.91,4.9,2-.91,.39-1.68-.06-2.33-.31-2.17-.83-6.47-1.35-11.85-1.71-5.37-.36-10.08-.68-16.04-.52-4.93,.13-9.53,.47-14.8,1.37-3.92,.67-6.92,1.1-10.61,2.46-3,1.11-5.61,2.61-7.32,4.16-1.46,1.33-.57,2.32,1.07,3.51,1.77,1.28,3.7,1.83,5.88,2.6,2.86,1.01,2.77,.88,4.95-.56,3.86-2.55,7.06-4.49,11.6-4.42,1.37,.02,2.56,.38,3.33,1.76-1.21,.19-.87-.97-2.92-1.07-1.61-.08-3.98,.37-5.44,.94-2.52,.99-4.22,2.15-6.49,3.7-.35,.24-1.35,.75-.76,.98,.27,.1,.56,.24,.87,.33,3.16,.9,6.35,1.71,9.51,2.63,1.52,.44,2.47,.72,3.65,1.08,.85,.26,1.5,.53,1.66,.28,.18-.29,.23-.76,.34-1.47,.13-.87,.2-1.64,.37-2.51,.09-.46,.19-.87,.76-.69,.49,.15,.53,.51,.38,1-.22,.73-.37,1.39-.5,2.23-.13,.77-.38,1.67-.23,1.78,.24,.19,.78,.35,1.54,.57,.57,.16,1.99,.6,1.74,.82-.36,.27-.72,.12-1.09,0-1.51-.48-2.41-.67-2.54-.44-.22,.37-.35,1.11-.52,2.48-.29,2.27-.18,3.38,.39,6.08,.08,.39,.24,1.04,.57,1.38,.09,.1,.29,.17,.54,.07,1-.4,2.44-.22,2.54-1.91,.08-1.42,.03-2.83,.32-4.26,.19-.94,.26-1.3,.73-2.71,.35-1.03,.76-.57,1.13-.47,.66,.18,.55,.49,.39,1.02-.66,2.11-.86,3.71-.87,6.49,0,.96,.79,1,1.3,1,1.87,0,3.62,.32,5.36,.93,4.2,1.48,5.66,4.57,3.96,8.67-1.98,4.75-5.08,8.8-8.22,12.81-2.48,3.16-5.37,6.01-7.2,9.65-.92,1.83-.29,2.9,1.78,3.09,3.37,.31,6.37-1.02,9.38-2.17,6.25-2.38,12.33-5.04,17.78-9.07,6.95-5.14,7.29-10.98,2.51-17.56-1.72-2.37-4.05-4.04-6.66-5.63,.55-.32,1.28,.17,1.66,.41,4.36,2.76,7.84,6.23,9.26,11.41,1.2,4.37-.82,7.61-3.69,10.45-3.19,3.16-7.03,5.41-11.12,7.2-4.54,1.98-8.99,4.19-13.81,5.44-2.05,.53-4.09,1.15-6.26,.61-2.43-.6-3.26-2.67-2.09-4.87,1.88-3.5,4.7-6.24,7.2-9.23,.82-.99,.87-1.55-.23-2.41-3.81-3-6.9-6.72-9.69-10.65-1.39-1.95,.02-5.27,1.61-6.71,.59-.53,1.21-.88,1.45-1.11,.09-.09-.09-.62-.29-1.32-.77-2.63-.87-5.25-.37-7.9,.12-.61,.2-1.18,.16-1.36-.07-.31-.99-.69-1.68-.88-4.7-1.27-9.37-2.64-14.05-3.96-.22-.06-.47-.11-.69-.06-1.97,.45-4.27,3.28-2.8,6.06,2.32,4.37,4.81,8.64,7.2,12.98,.89,1.62,1.7,3.28,2.55,4.92Zm15.1-4.8c.04,1.98,.2,3.46,.4,5.34,.31,2.98,.94,5.92,2.42,8.59,.45,.81,.81,1.2,1.44,.19,1.67-2.64,3.48-5.2,4.96-7.95,.92-1.71,1.77-3.66,1.31-5.7-.75-3.27-3.04-4.06-6.61-4.59-3.89-.57-3.92-.34-3.92,3.59,0,.06,0,.12,0,.51Zm-1.08-.59c-1.41,1.5-2.34,1.05-3.07-.02-.51-.75-.45-1.49-.5-1.91-.03-.28-.51,.12-.83,.34-.58,.39-1.04,1.01-1.44,1.7-.78,1.36-1.01,2.68-.31,4.21,.51,1.1,1.2,2.03,1.91,2.96,1.8,2.34,3.73,4.57,6.38,6.59-1.33-4.6-2.3-8.89-2.16-13.86Zm-1.41,.16c.91-.32,1.12-1.6,1.09-2.71-.01-.4-.33-.67-.63-.56-.76,.27-1.82,.23-1.81,1.52,0,.66,.41,2.08,1.35,1.75Z"/>
  </g>
</svg>