<?xml version="1.0" encoding="UTF-8"?>
<svg id="Vrstva_2" data-name="Vrstva 2" xmlns="http://www.w3.org/2000/svg" viewBox="0 0 151.18 151.18">
  <defs>
    <style>
      .cls-1 {
        fill: #fff;
      }

      .cls-2 {
        fill: none;
        stroke: #fff;
        stroke-miterlimit: 10;
        stroke-width: 5px;
      }
    </style>
  </defs>
  <g id="Vrstva_1-2" data-name="Vrstva 1">
    <g>
      <rect class="cls-2" x="2.5" y="2.5" width="146.18" height="146.18"/>
      <g>
        <polygon class="cls-1" points="20.96 59.67 20.96 77.6 26.98 77.6 26.98 59.66 20.96 59.67"/>
        <polygon class="cls-1" points="31.78 59.8 31.74 77.64 36.74 77.64 36.74 67.31 40.46 77.63 44.68 77.63 47.32 68.07 47.29 77.63 52.51 77.63 52.53 59.81 45.86 59.81 42.54 70.62 38.89 59.82 31.78 59.8"/>
        <path class="cls-1" d="M72.34,67.16c.39-8.26-7.46-7.5-9.02-7.54-.71-.02-5.79,0-5.79,0v17.93h5.23s0-4.59,0-4.59c0,0,9.25,.97,9.57-5.79Zm-9.53,1.88l-.03-5.37s4.8-.62,4.82,2.62c0,3.38-4.79,2.75-4.79,2.75Z"/>
        <path class="cls-1" d="M91.63,77.48l-6.34-17.88-5.58-.05-6.12,18.05,6.18-.05v-1.84h5.74v1.79h6.12Zm-10.8-5.96l1.9-6.23,1.9,6.23h-3.79Z"/>
        <path class="cls-1" d="M112.66,66.61s-1.2-7.97-9.48-7.99-10.53,6.66-10.57,10.3,2.23,9.7,10.73,9.7,9.27-7.91,9.27-7.91h-5.8s-.38,2.65-3.41,2.66-5.16-1.66-5.15-4.34,1.67-5.06,5.07-5.07c3.07,0,3.44,2.65,3.44,2.65h5.91Z"/>
        <polygon class="cls-1" points="115.42 59.59 115.42 64.63 119.59 64.63 119.59 77.58 125.5 77.58 125.5 64.58 129.67 64.58 129.67 59.48 115.42 59.59"/>
        <polygon class="cls-1" points="21.49 83.63 21.49 123.55 30.54 123.55 30.54 107.68 43.48 107.68 43.48 123.55 52.6 123.55 52.6 83.56 43.54 83.56 43.54 99.37 30.61 99.37 30.61 83.63 21.49 83.63"/>
        <path class="cls-1" d="M61.6,83.5s.09,22.43,0,28.99,4.81,11.76,9.93,12,5.42,.3,10.26,0c5.9-.54,10.85-6.06,10.86-12s0-28.86,0-28.86h-9.06s.09,27.23,0,28.86-.84,4.09-6.5,4.12c-5.66,.04-6.36-2.89-6.5-4.12s0-28.86,0-28.86l-9-.12Z"/>
        <path class="cls-1" d="M123.57,103.12s6.01-2.58,6.19-7.68c.18-5.1-3.32-11.87-10.6-11.87s-17.64,.06-17.64,.06v39.73h20.12c4.02,0,9-3.62,9-10.87s-7.06-9.37-7.06-9.37Zm-6.9,13.22c-3.07,.09-6,0-6,0v-9.75h6.5c1.93,0,3.59,2.3,3.56,4.75-.02,2.45-.99,4.9-4.06,5Zm0-16.19c-3.07,.09-6,0-6,0v-9.75h6.5c1.93,0,3.59,2.3,3.56,4.75-.02,2.45-.99,4.9-4.06,5Z"/>
      </g>
    </g>
  </g>
</svg>