<svg id="Partners-Strom-RGB" xmlns="http://www.w3.org/2000/svg" viewBox="0 0 436.61 161.41"><defs><style>.cls-1{fill:#fff;}</style></defs><path class="cls-1" d="M206.92,57.6a12.81,12.81,0,0,0-2.49-2,15.85,15.85,0,0,0-7.94-2c-9.62,0-17.25,7.62-17.25,18.45s7.63,18.45,17.25,18.45a15,15,0,0,0,7.94-2,12.41,12.41,0,0,0,2.49-2l1.6,3.6h5.22V54h-5.22Zm-10,26.07c-5.53,0-10.43-4.82-10.43-11.63s4.9-11.63,10.43-11.63S207.32,65.22,207.32,72,202.43,83.67,196.89,83.67Z"/><path class="cls-1" d="M161.56,39.55H143.11V90.08h7.62V71.64h10.83a16,16,0,0,0,0-32.09Zm0,24.87H150.73V46.77h10.83c4.49,0,8.42,4.09,8.42,8.82A8.72,8.72,0,0,1,161.56,64.42Z"/><path class="cls-1" d="M231.3,55.59a11.66,11.66,0,0,0-2.32,2L227.37,54h-5.21V90.08h7.22V69.63a8.9,8.9,0,0,1,8.82-8.82h2.41V54a22.72,22.72,0,0,0-2.93-.22A10.81,10.81,0,0,0,231.3,55.59Z"/><path class="cls-1" d="M381.17,64.42c0-2,2-4,5.62-4s5.61,1.92,6,4.41H400c-.4-6.82-4.81-11.23-13.23-11.23-7.62,0-12.43,4.81-12.43,10.83,0,12.75,19.25,8.42,19.25,14.84,0,2.48-1.93,4.41-6.42,4.41-4.09,0-6-2-6.42-5.22h-7.22c.41,7.7,4.74,12,13.64,12,8.42,0,13.23-4.82,13.23-11.23C400.42,66.5,381.17,70.83,381.17,64.42Z"/><path class="cls-1" d="M258.63,44.36h-6v4.82A4.64,4.64,0,0,1,247.81,54H245v6.82h6.41V78.05c0,7.62,4.82,12.44,11.23,12.44a9.67,9.67,0,0,0,2.89-.41,4.63,4.63,0,0,0,1.12-.4V83.27l-.72.24a11.94,11.94,0,0,1-1.68.16,5.49,5.49,0,0,1-5.62-5.62V60.81h8V54h-8Z"/><path class="cls-1" d="M329,53.59c-9.31,0-16.85,7.62-16.85,18.45s7.62,18.45,17.25,18.45c8.42,0,13.31-4.82,15.64-10.83h-7.62a9.83,9.83,0,0,1-17.65-4.41h25.67l.16-1a14.75,14.75,0,0,0,.24-2.24C345.81,61.21,338.27,53.59,329,53.59Zm-9.23,15.64c.89-5.21,4.42-8.82,9.23-8.82,5.69,0,9.14,3.61,10,8.82Z"/><path class="cls-1" d="M291.87,53.59a15.91,15.91,0,0,0-7.94,2,12.74,12.74,0,0,0-2.48,2L279.84,54h-5.21V90.08h7.22V69.23a8.9,8.9,0,0,1,8.82-8.82c4.49,0,8.42,4.09,8.42,8.82V90.08h7.22V69.23C306.31,60,299.9,53.59,291.87,53.59Z"/><path class="cls-1" d="M361,55.59a11.66,11.66,0,0,0-2.32,2L357,54h-5.21V90.08h7.22V69.63a8.9,8.9,0,0,1,8.82-8.82h2.41V54a22.72,22.72,0,0,0-2.93-.22A10.81,10.81,0,0,0,361,55.59Z"/><path class="cls-1" d="M143.45,109.16h9.39A6.84,6.84,0,0,1,160,116a5.77,5.77,0,0,1-1.4,3.84,5.41,5.41,0,0,1-1.4,1.16,7.77,7.77,0,0,1,1.88,1.36,6.72,6.72,0,0,1,1.92,4.84c0,3.71-3.4,7.19-8,7.19h-9.59Zm9.39,10.6a3.91,3.91,0,1,0,0-7.8h-6.19v7.8Zm.2,11.79a4.5,4.5,0,1,0,0-9h-6.39v9Z"/><path class="cls-1" d="M177.23,132.35a6.16,6.16,0,0,1-1.36,1.12,7.26,7.26,0,0,1-4,1.08c-4.64,0-8.4-3.8-8.4-9.19s3.76-9.2,8.4-9.2a7.24,7.24,0,0,1,4,1.12,7.35,7.35,0,0,1,1.36,1.08l.8-2h2.2v18H178Zm.4-7c0-3.84-2.6-6.4-5.59-6.4s-5.6,2.56-5.6,6.4,2.6,6.39,5.6,6.39S177.63,129.19,177.63,125.36Z"/><path class="cls-1" d="M184.83,116.36H187l.8,2a6,6,0,0,1,1.32-1.08,6.88,6.88,0,0,1,3.88-1.12c3.79,0,7,3.2,7,7.8v10.39h-3V124c0-3-2-5-4.4-5a4.63,4.63,0,0,0-4.8,5v10.39h-3Z"/><path class="cls-1" d="M204.62,109.16h3V125l6.8-8.6h3.4l-6.8,8.4,7.8,9.59h-3.6l-7.6-9.39v9.39h-3Z"/><path class="cls-1" d="M232.81,132.35a6.16,6.16,0,0,1-1.36,1.12,7.27,7.27,0,0,1-4,1.08c-4.63,0-8.39-3.8-8.39-9.19s3.76-9.2,8.39-9.2a7.25,7.25,0,0,1,4,1.12,7.35,7.35,0,0,1,1.36,1.08l.8-2h2.2v18h-2.2Zm.4-7c0-3.84-2.6-6.4-5.6-6.4s-5.6,2.56-5.6,6.4,2.6,6.39,5.6,6.39S233.21,129.19,233.21,125.36Z"/><polygon class="cls-1" points="73.13 86.87 70 108.12 81.67 108.12 78.54 86.87 73.13 86.87"/><path class="cls-1" d="M114.61,57.63a5.83,5.83,0,0,0-4.35-3.39c-3.64-.47-6.06,2.75-8.64,4.82C98.69,61.8,90,69.43,77.28,72.1l1.46,5.84c5.37-1,15.4-2.55,25.93-9.46-1.18,13.46-12.37,19.68-21.13,22.1l1.74,6.59c11.46-2.85,21.19-9.63,25.69-18C115.35,71.1,116.85,62.24,114.61,57.63Z"/><path class="cls-1" d="M49.57,77.49a25.47,25.47,0,0,1-.92-24.9A31.06,31.06,0,0,1,75.59,37.54c5.16.14,9.57,2.69,11,6.33,1.13,2.94.14,6.27-2.8,9.39C73.83,63.65,60.11,65.13,55.62,65.45v5.89c14.29-.8,25.21-4.37,33.87-11.4,17-13.07,10.41-29.74-9.22-32.55C57.9,24.68,41.36,39,37.16,53.87c-4.71,18.86,6.15,37.56,29.22,43.29l1.8-6.78C64.87,89.5,55.31,86.62,49.57,77.49Z"/></svg>