<svg width="78" height="28" viewBox="0 0 78 28" fill="none" xmlns="http://www.w3.org/2000/svg">
<path d="M16.8656 0.761902H9.46777V27.2381H16.8656V0.761902Z" fill="#F7E0CE"/>
<path d="M4.27136 0.761902H0V8.93773C0 8.93773 0.0440346 8.74725 0.0440346 8.7326C0.41099 7.41392 1.68799 2.52014 7.4125 0.82051C7.42717 0.82051 7.5446 0.776554 7.55928 0.776554H4.27136V0.761902Z" fill="#F7E0CE"/>
<path d="M49.2012 13.8315L52.1515 2.09524C49.348 0.703297 46.1775 0 42.7428 0C40.8787 0 39.176 0.278388 37.6348 0.791209C37.6935 0.791209 37.7375 0.791209 37.7962 0.791209C40.5411 0.791209 43.5501 3.04762 49.1718 13.8168C49.1865 13.8168 49.1865 13.8315 49.2012 13.8315Z" fill="#F7E0CE"/>
<path d="M39.4549 18.4322C36.167 14.9011 34.3615 10.359 34.3615 5.61172C34.3615 3.98534 34.7285 2.71062 35.4184 1.89011C35.4771 1.81685 35.433 1.87545 35.5945 1.69963C31.7195 3.82417 29.4443 7.85348 29.4443 13.0989C29.4443 17.4212 30.7654 21.1429 33.2753 23.8388C35.8147 26.5641 39.3228 28.0146 43.4473 28.0146C47.2343 28.0146 50.8598 26.315 52.8854 23.6923C52.9001 23.6777 52.9148 23.6483 52.9295 23.6337C52.9001 23.6337 52.8708 23.6483 52.8267 23.6483C52.1662 23.7656 51.447 23.8095 50.8452 23.8095C46.7793 23.7802 42.6254 21.8315 39.4549 18.4322Z" fill="#F7E0CE"/>
<path d="M66.639 0.761902H59.2412V27.2381H66.639V0.761902Z" fill="#F7E0CE"/>
<path d="M22.0614 0.761902H26.3327V8.93773C26.3327 8.93773 26.2887 8.74725 26.2887 8.7326C25.9217 7.41392 24.6447 2.52014 18.9202 0.82051C18.9055 0.82051 18.7881 0.776554 18.7734 0.776554H22.0614V0.761902Z" fill="#F7E0CE"/>
<path d="M73.4788 0.761905H78.0143V7.75092C78.0143 7.75092 77.9703 7.58974 77.9703 7.57509C77.574 6.44689 76.2383 2.25641 70.1468 0.791209C70.1321 0.791209 70 0.761905 69.9854 0.747253H73.4788V0.761905Z" fill="#F7E0CE"/>
<path d="M73.5521 10.3883C72.143 11.7802 70.1174 12.9377 68.312 13.4652C68.224 13.4945 68.1359 13.5092 68.0625 13.5385C68.1506 13.5531 68.2386 13.5824 68.312 13.6117C70.1174 14.1392 72.1577 15.2967 73.5521 16.6886C73.6109 16.7473 73.6549 16.7912 73.7136 16.8498V13.5385V10.2418C73.6549 10.2857 73.5962 10.3443 73.5521 10.3883Z" fill="#F7E0CE"/>
</svg>
