<svg width="84" height="23" viewBox="0 0 84 23" fill="none" xmlns="http://www.w3.org/2000/svg">
<path fill-rule="evenodd" clip-rule="evenodd" d="M4.25478 10.7201C6.19409 10.7201 7.35183 10.0835 7.35183 7.66552V5.53468C7.35183 3.52923 6.63235 2.48013 4.81722 2.48013H2.44184V10.7208H4.25624L4.25478 10.7201ZM4.88077 0.22168C8.32184 0.22168 9.7608 2.00232 9.7608 5.31136V7.12391C9.7608 9.57304 8.91642 11.1007 7.0392 11.7054C9.04132 12.3093 9.79221 13.9638 9.79221 16.3499V19.8162C9.79221 20.803 9.82362 21.7252 10.2305 22.4894H7.75868C7.47673 21.8528 7.35183 21.28 7.35183 19.785V16.2853C7.35183 13.7731 6.19409 12.977 4.16129 12.977H2.44038V22.4886H0V0.222422H4.88077V0.22168Z" fill="white"/>
<path fill-rule="evenodd" clip-rule="evenodd" d="M22.1897 2.44374C17.3637 2.44374 13.4391 6.43535 13.4391 11.3425C13.4391 16.2467 17.3637 20.2383 22.1897 20.2383C27.0142 20.2383 30.9388 16.2467 30.9388 11.3418C30.9388 6.43461 27.0142 2.44374 22.1897 2.44374ZM22.1897 22.5717C16.0993 22.5717 11.1455 17.5325 11.1455 11.3425C11.1462 5.14809 16.0993 0.110352 22.1904 0.110352C28.2793 0.110352 33.2346 5.14883 33.2346 11.3403C33.2346 17.5325 28.2793 22.5695 22.1904 22.5695V22.5717H22.1897Z" fill="url(#paint0_linear_32_541)"/>
<path fill-rule="evenodd" clip-rule="evenodd" d="M39.2579 0.0458984H39.3251C42.6186 0.0607371 44.1722 2.25167 44.1722 5.6119V6.21658H41.8568V5.48503C41.8568 3.48032 41.1059 2.30361 39.355 2.30361C37.602 2.30361 36.8511 3.48106 36.8511 5.45387C36.8511 10.4478 44.2037 10.9249 44.2037 17.1928C44.2037 20.5641 42.6077 22.7588 39.2601 22.7588C35.9125 22.7588 34.3486 20.5641 34.3486 17.1928V15.9196H36.632V17.3189C36.632 19.3229 37.4457 20.5003 39.198 20.5003C40.9503 20.5003 41.7633 19.3229 41.7633 17.3189C41.7633 12.3561 34.4429 11.8798 34.4429 5.61264C34.4429 2.18861 35.9958 0.0599952 39.2579 0.0458984ZM50.8952 0.0458984H50.9616C54.2559 0.0607371 55.8103 2.25167 55.8103 5.6119V6.21658H53.4948V5.48503C53.4948 3.48032 52.7439 2.30361 50.9923 2.30361C49.24 2.30361 48.4884 3.48106 48.4884 5.45387C48.4884 10.4478 55.8409 10.9249 55.8409 17.1928C55.8409 20.5641 54.2457 22.7588 50.8981 22.7588C47.5505 22.7588 45.9859 20.5641 45.9859 17.1928V15.9196H48.27V17.3189C48.27 19.3229 49.0837 20.5003 50.8353 20.5003C52.5869 20.5003 53.4006 19.3229 53.4006 17.3189C53.4006 12.3561 46.0794 11.8798 46.0794 5.61264C46.0794 2.18861 47.6331 0.0599952 50.8952 0.0458984ZM62.7268 22.7907H62.7823C66.1415 22.7781 67.666 20.5218 67.666 17.1594V0.268479H65.3826V17.287C65.3826 19.2917 64.601 20.4996 62.8487 20.4996C61.0657 20.4996 60.2842 19.2902 60.2842 17.287V0.266995H57.8737V17.1609C57.8737 20.5233 59.3982 22.7781 62.7268 22.7907Z" fill="white"/>
<path d="M78.1457 22.5036H75.8003L72.1707 4.78547V22.5363H70.043V0.267822H73.4541L77.0508 18.0505L80.5247 0.267822H83.9351V22.5363H81.6196V4.62595L78.1457 22.5036Z" fill="white"/>
<defs>
<linearGradient id="paint0_linear_32_541" x1="15.3943" y1="22.5717" x2="32.5485" y2="22.5717" gradientUnits="userSpaceOnUse">
<stop stop-color="white"/>
<stop offset="1" stop-color="white"/>
</linearGradient>
</defs>
</svg>
