<?xml version="1.0" encoding="UTF-8"?>
<svg id="Vrstva_2" data-name="Vrstva 2" xmlns="http://www.w3.org/2000/svg" viewBox="0 0 266.9 327">
  <defs>
    <style>
      .cls-1 {
        fill: #fff;
      }
    </style>
  </defs>
  <g id="Vrstva_1-2" data-name="Vrstva 1">
    <g>
      <rect class="cls-1" width="266.8" height="24.5"/>
      <polygon class="cls-1" points="117.4 105 134.4 86.8 160.4 111.1 176.2 94.2 133.3 54 84.6 105.9 228.9 241 38 241 114.6 171.7 99 154.5 0 244 7.8 264.2 259.1 264.2 266.9 244 117.4 105"/>
      <g>
        <path class="cls-1" d="M1.2,325.1c-.1,0-.1-.1-.1-.1l-.5-4.7c0-.1,.1-.2,.1-.2h.1c1.1,.6,5.4,2.8,12.5,2.8,4.6,0,7.5-1.2,7.5-2.8,0-1.2-2.5-2.3-8.7-2.3-11.6,0-12.1-4.8-12.1-6.6,0-5.8,7-7.2,13.1-7.2,5.5,0,9.3,1.6,10,1.9,.1,0,.1,.1,.1,.1l.3,4.5c0,.1-.1,.2-.1,.2h-.1c-1.4-.9-5.5-2.5-10.1-2.5-7.6,0-8.9,1.8-8.9,3,0,1.7,3,2.4,7.9,2.4,4.4,0,13.1,.5,13.1,6.6,0,1.4-1,6.8-11.9,6.8-7.1,.1-11.5-1.6-12.2-1.9Z"/>
        <path class="cls-1" d="M74.9,326.5l-1.8-3.6c0-.1-.1-.1-.2-.1h-13.5c-.1,0-.2,.1-.2,.1l-1.8,3.6c-.1,.1-.1,.2-.2,.2h-4.2c-.2,0-.3-.2-.2-.4l10.8-21.6q.1-.1,.2-.1h4.5c.1,0,.2,.1,.2,.1l10.8,21.6c.1,.2-.1,.4-.2,.4h-4.2c.1-.1,0-.2,0-.2Zm-13.3-8h9.1c.1,0,.2-.1,.1-.2l-4.6-9.2c0-.1-.1-.1-.1,0l-4.6,9.2c-.1,.1,0,.2,.1,.2Z"/>
        <path class="cls-1" d="M126.5,304.5l1.3,3.5q0,.1-.1,.1h-10.6l-.1,.1v18.1c0,.1-.1,.2-.1,.2h-3.9c-.1,0-.1-.1-.1-.2v-18.1l-.1-.1h-10.6q-.1,0-.1-.1l1.2-3.5q0-.1,.1-.1l23.1,.1h0Z"/>
        <path class="cls-1" d="M156.4,326.6c-.2,0-.3-.2-.3-.3v-21.5c0-.2,.1-.3,.3-.3h3.1c.1,0,.2,0,.2,.1l15.6,15.2h.1s.1,0,.1-.1v-14.9c0-.2,.2-.3,.3-.3h3.6c.2,0,.3,.1,.3,.3v21.5c0,.2-.2,.3-.3,.3h-2.9c-.1,0-.2,0-.2-.1l-15.9-15.4c-.1-.1-.1,0-.1,.1v15.1c0,.2-.2,.3-.3,.3h-3.6Z"/>
        <path class="cls-1" d="M209,326.6c-.1,0-.2-.1-.2-.2v-21.7c0-.1,.1-.2,.2-.2h3.8c.1,0,.2,.1,.2,.2v21.7c0,.1-.1,.2-.2,.2h-3.8Z"/>
        <path class="cls-1" d="M255.2,314.7l11.6,11.6c.1,.1,0,.2-.1,.2h-5.4s-.1,0-.1-.1l-9-8.9-.1-.1s-.1,0-.1,.1l-5.4,5.3v3.4c0,.1-.1,.2-.2,.2h-3.7c-.1,0-.2-.1-.2-.2v-21.6c0-.1,.1-.2,.2-.2h3.7c.1,0,.2,.1,.2,.2v12c0,.1,.1,.2,.1,.2q.1,0,.1-.1l12.5-12.3h5.7c.1,0,.2,.2,.1,.2l-9.9,9.8c-.1,.1-.1,.2,0,.3Z"/>
        <path class="cls-1" d="M21.1,299.9H4.2v-3.4H21.1v3.4q.1,0,0,0Z"/>
        <path class="cls-1" d="M220.1,299.9h-11.2v-3.4h11.2v3.4h0Z"/>
      </g>
    </g>
  </g>
</svg>